<?xml version="1.0" encoding="UTF-8" standalone="no"?>
<svg
   width="190mm"
   height="34mm"
   version="1.1"
   viewBox="0 0 190 34"
   id="svg44"
   sodipodi:docname="tagspaces-docs-logo.svg"
   inkscape:version="1.3 (0e150ed, 2023-07-21)"
   xmlns:inkscape="http://www.inkscape.org/namespaces/inkscape"
   xmlns:sodipodi="http://sodipodi.sourceforge.net/DTD/sodipodi-0.dtd"
   xmlns="http://www.w3.org/2000/svg"
   xmlns:svg="http://www.w3.org/2000/svg"
   xmlns:rdf="http://www.w3.org/1999/02/22-rdf-syntax-ns#"
   xmlns:cc="http://creativecommons.org/ns#"
   xmlns:dc="http://purl.org/dc/elements/1.1/">
  <metadata
     id="metadata50">
    <rdf:RDF>
      <cc:Work
         rdf:about="">
        <dc:format>image/svg+xml</dc:format>
        <dc:type
           rdf:resource="http://purl.org/dc/dcmitype/StillImage" />
      </cc:Work>
    </rdf:RDF>
  </metadata>
  <defs
     id="defs48" />
  <sodipodi:namedview
     pagecolor="#ffffff"
     bordercolor="#666666"
     borderopacity="1"
     objecttolerance="10"
     gridtolerance="10"
     guidetolerance="10"
     inkscape:pageopacity="0"
     inkscape:pageshadow="2"
     inkscape:window-width="1512"
     inkscape:window-height="869"
     id="namedview46"
     showgrid="false"
     inkscape:zoom="1.3899231"
     inkscape:cx="328.43543"
     inkscape:cy="-2.1583927"
     inkscape:window-x="0"
     inkscape:window-y="38"
     inkscape:window-maximized="1"
     inkscape:current-layer="g42"
     inkscape:showpageshadow="2"
     inkscape:pagecheckerboard="0"
     inkscape:deskcolor="#d1d1d1"
     inkscape:document-units="mm" />
  <ellipse
     cx="18.962046"
     cy="12.145446"
     rx="1.4355569"
     ry="1.4186352"
     fill="#616577"
     id="ellipse2"
     style="stroke-width:0.924675" />
  <g
     id="g14"
     transform="matrix(0.92467429,0,0,0.92467429,1.9517406,0.03591334)">
    <g
       stroke-width="2.6742"
       id="g10">
      <path
         d="M 15.219,24.158 12.7703,21.8932"
         fill="none"
         stroke="#a466aa"
         id="path4" />
      <path
         d="M 19.601,18.905 14.7035,14.5013"
         fill="#f7901e"
         stroke="#33b5be"
         id="path6" />
      <path
         d="M 17.474,21.611 13.7364,18.2768"
         fill="#616577"
         stroke="#f7901e"
         id="path8" />
    </g>
    <path
       d="m 15.667,8.1954 h 8.0718 v 7.6893 l -10.741,11.026 -7.9741,-7.3716 z"
       fill="none"
       stroke="#616577"
       stroke-width="3.1071"
       id="path12" />
  </g>
  <g
     fill="#616577"
     stroke-width="0.26458px"
     aria-label="TagSpaces Docs"
     id="g42"
     transform="matrix(1.1198092,0,0,1.1198092,-0.33784641,-3.9059769)">
    <path
       d="m 33.369592,23.827299 c -0.709088,0 -1.347205,-0.177116 -1.914351,-0.531346 -0.567145,-0.368676 -1.013701,-0.864849 -1.339669,-1.488521 -0.326595,-0.6243 -0.489893,-1.326479 -0.489893,-2.10654 V 9.5544553 c 0,-0.312149 0.09923,-0.567459 0.297705,-0.765928 0.19847,-0.19847 0.453779,-0.297704 0.765929,-0.297704 0.312149,0 0.567459,0.09923 0.765928,0.297704 0.19847,0.198469 0.297704,0.453779 0.297704,0.765928 V 19.700892 c 0,0.567146 0.156076,1.042279 0.468225,1.4254 0.31215,0.383122 0.694957,0.574683 1.148422,0.574683 h 0.723535 c 0.254995,0 0.467596,0.09893 0.637803,0.296762 0.184023,0.198469 0.276035,0.453779 0.276035,0.765928 0,0.31215 -0.120274,0.567459 -0.360825,0.765929 -0.227361,0.19847 -0.525379,0.297705 -0.894054,0.297705 z m -4.721814,-9.380508 c -0.297705,0 -0.538883,-0.08479 -0.723534,-0.254367 -0.184024,-0.170835 -0.276036,-0.38375 -0.276036,-0.638745 0,-0.283887 0.09201,-0.510934 0.276036,-0.681141 0.184651,-0.169578 0.425829,-0.254367 0.723534,-0.254367 h 4.91306 c 0.297705,0 0.538883,0.08479 0.723535,0.254367 0.184024,0.170207 0.276036,0.397254 0.276036,0.681141 0,0.254995 -0.09202,0.467596 -0.276036,0.637802 -0.184652,0.170207 -0.42583,0.25531 -0.723535,0.25531 z m 12.607206,9.465296 c -1.035056,0 -1.963968,-0.255309 -2.786737,-0.765928 -0.822769,-0.524437 -1.475017,-1.226303 -1.956745,-2.105597 -0.467911,-0.893113 -0.701866,-1.899906 -0.701866,-3.020379 0,-1.120473 0.255309,-2.127266 0.765928,-3.020379 0.524437,-0.893112 1.226303,-1.594978 2.105597,-2.105598 0.893113,-0.525065 1.892997,-0.787597 2.999653,-0.787597 1.105399,0 2.097747,0.262532 2.977041,0.787597 0.879296,0.51062 1.574253,1.212486 2.084872,2.105598 0.524436,0.893113 0.786655,1.899906 0.786655,3.020379 h -0.82905 c 0,1.120473 -0.241178,2.127266 -0.723534,3.020379 -0.46791,0.879294 -1.112937,1.58116 -1.935078,2.105597 -0.822768,0.510619 -1.75168,0.765928 -2.786736,0.765928 z m 0.42583,-1.91435 c 0.722906,0 1.367931,-0.170207 1.935077,-0.51062 0.567146,-0.35423 1.014016,-0.829363 1.340611,-1.425399 0.325967,-0.609226 0.48895,-1.289738 0.48895,-2.041535 0,-0.766243 -0.163298,-1.447068 -0.489892,-2.042477 C 44.629592,15.36848 44.183037,14.89366 43.615891,14.553248 43.048745,14.198389 42.40372,14.02096 41.680814,14.02096 c -0.709718,0 -1.355057,0.177429 -1.936019,0.532288 -0.567146,0.340412 -1.020925,0.815232 -1.361337,1.424458 -0.326595,0.596037 -0.489892,1.276863 -0.489892,2.042477 0,0.751797 0.163297,1.432309 0.489892,2.041535 0.340412,0.596036 0.794191,1.071169 1.361337,1.425399 0.581591,0.340413 1.22693,0.51062 1.936019,0.51062 z m 4.764208,1.850288 c -0.312149,0 -0.574367,-0.09923 -0.786655,-0.297705 -0.199097,-0.212287 -0.298645,-0.474505 -0.298645,-0.786655 v -3.254961 l 0.405103,-2.25445 1.764557,0.765929 v 4.743482 c 0,0.31215 -0.106143,0.574368 -0.318431,0.786655 -0.19847,0.19847 -0.453779,0.297705 -0.765929,0.297705 z m 7.906119,0.06406 c -1.063319,0 -2.006363,-0.248087 -2.829132,-0.74426 -0.808323,-0.51062 -1.44644,-1.205577 -1.914351,-2.084871 -0.46791,-0.893113 -0.701865,-1.914038 -0.701865,-3.062773 0,-1.162554 0.248087,-2.183479 0.74426,-3.062773 0.51062,-0.893741 1.205577,-1.588699 2.084871,-2.084872 0.879295,-0.510619 1.893311,-0.765929 3.042047,-0.765929 1.134291,0 2.141083,0.25531 3.020379,0.765929 0.879294,0.496173 1.567029,1.191131 2.063202,2.084872 0.509992,0.879294 0.764987,1.900219 0.764987,3.062773 h -1.25488 c 0,1.148735 -0.219823,2.16966 -0.659471,3.062773 -0.425202,0.879294 -1.013701,1.574251 -1.765499,2.084871 -0.751169,0.496173 -1.616018,0.74426 -2.594548,0.74426 z m 0.382494,4.743483 c -1.006793,0 -1.949523,-0.198469 -2.828191,-0.595408 -0.879294,-0.397567 -1.623869,-0.979159 -2.233722,-1.744773 -0.184652,-0.241178 -0.255624,-0.489266 -0.212916,-0.744261 0.05653,-0.254995 0.198469,-0.460688 0.42583,-0.617077 0.254995,-0.169578 0.517214,-0.226104 0.786656,-0.169578 0.283886,0.05653 0.510932,0.198156 0.681139,0.424888 0.383121,0.482356 0.865163,0.858255 1.446126,1.127696 0.58159,0.269441 1.241063,0.404162 1.978414,0.404162 0.680197,0 1.303869,-0.163298 1.871015,-0.489893 0.58159,-0.325967 1.042592,-0.808009 1.383004,-1.446126 0.340414,-0.638117 0.51062,-1.417863 0.51062,-2.339239 v -3.020378 l 0.701866,-1.871957 1.382063,0.446557 v 4.59463 c 0,1.119845 -0.248087,2.133547 -0.744261,3.041105 -0.496173,0.922004 -1.190816,1.652446 -2.083928,2.191328 -0.879296,0.538883 -1.900534,0.808324 -3.063715,0.808324 z m 0.04334,-6.657834 c 0.737352,0 1.3896,-0.170206 1.956745,-0.510619 0.567146,-0.340412 1.006794,-0.808323 1.318943,-1.403732 0.325968,-0.595408 0.488951,-1.283142 0.488951,-2.063202 0,-0.78006 -0.163297,-1.467795 -0.489893,-2.063204 -0.311522,-0.609226 -0.751169,-1.084359 -1.318943,-1.4254 -0.566517,-0.340412 -1.218451,-0.510619 -1.955803,-0.510619 -0.737351,0 -1.389914,0.170207 -1.957688,0.510619 -0.567145,0.340413 -1.013701,0.815547 -1.339668,1.4254 -0.326596,0.595409 -0.489893,1.283144 -0.489893,2.063204 0,0.78006 0.163297,1.467794 0.489893,2.063202 0.326595,0.595409 0.773151,1.06332 1.339668,1.403732 0.567146,0.340413 1.219708,0.510619 1.957688,0.510619 z m 12.053251,1.914351 c -0.992348,0 -1.914038,-0.148852 -2.765069,-0.446556 -0.836587,-0.312149 -1.488835,-0.702179 -1.956745,-1.17009 -0.212916,-0.226732 -0.305242,-0.482043 -0.276979,-0.76593 0.0427,-0.297703 0.184649,-0.538567 0.425831,-0.722591 0.283258,-0.227361 0.559608,-0.319686 0.829049,-0.276978 0.283886,0.02826 0.525065,0.148855 0.723534,0.361766 0.241178,0.269442 0.624299,0.524752 1.149364,0.765929 0.538255,0.226733 1.133662,0.340099 1.786225,0.340099 0.822769,0 1.446441,-0.13472 1.871015,-0.404161 0.439647,-0.269441 0.666693,-0.616763 0.681139,-1.041965 0.01444,-0.425829 -0.191246,-0.794506 -0.617077,-1.106027 -0.411385,-0.31215 -1.17009,-0.56746 -2.276118,-0.765929 -1.431994,-0.283887 -2.474273,-0.709402 -3.126835,-1.276548 -0.638117,-0.567146 -0.957176,-1.261789 -0.957176,-2.08393 0,-0.723533 0.212915,-1.319256 0.638745,-1.787167 0.425202,-0.482355 0.970993,-0.8369 1.637373,-1.063632 0.66638,-0.241179 1.361337,-0.361768 2.084872,-0.361768 0.935821,0 1.765184,0.149167 2.48809,0.447499 0.723535,0.297704 1.298217,0.708774 1.724047,1.233211 0.197841,0.226732 0.289853,0.46791 0.276036,0.723534 -0.01444,0.240551 -0.135035,0.445928 -0.361768,0.616135 -0.226732,0.156389 -0.496173,0.206006 -0.808323,0.148852 -0.312149,-0.05653 -0.574368,-0.184024 -0.786656,-0.382494 -0.354858,-0.340412 -0.737979,-0.574368 -1.149364,-0.701865 -0.410756,-0.127498 -0.885574,-0.191247 -1.424457,-0.191247 -0.6243,0 -1.156273,0.106143 -1.59592,0.318431 -0.425202,0.213543 -0.637803,0.525693 -0.637803,0.936449 0,0.254995 0.06375,0.488951 0.191246,0.701865 0.141944,0.19847 0.411385,0.382808 0.808323,0.553014 0.396939,0.155761 0.97853,0.311837 1.744773,0.468225 1.063319,0.212287 1.899906,0.481728 2.509759,0.808323 0.623672,0.325968 1.070227,0.708775 1.339669,1.148422 0.270069,0.425202 0.405104,0.921376 0.405104,1.488522 0,0.652562 -0.177429,1.241061 -0.532287,1.765498 -0.340414,0.525065 -0.851033,0.943358 -1.531859,1.25488 -0.666379,0.31215 -1.502966,0.468224 -2.509758,0.468224 z m 7.141131,4.889509 c -0.312149,0 -0.574368,-0.106458 -0.786655,-0.319373 -0.198469,-0.19847 -0.297704,-0.453465 -0.297704,-0.764987 v -9.698937 c 0.01382,-1.120474 0.276038,-2.127267 0.786655,-3.020379 0.51062,-0.893741 1.205577,-1.595921 2.084871,-2.10654 0.879295,-0.524436 1.871643,-0.786655 2.977042,-0.786655 1.120473,0 2.120358,0.262219 2.999652,0.786655 0.879295,0.510619 1.574252,1.212799 2.084871,2.10654 0.524437,0.893112 0.786656,1.899905 0.786656,3.020379 0,1.119844 -0.241178,2.126637 -0.723535,3.020378 -0.46791,0.879295 -1.112937,1.581161 -1.935077,2.105597 -0.822768,0.510619 -1.751681,0.765929 -2.786737,0.765929 -0.836587,0 -1.609424,-0.170207 -2.318513,-0.510619 -0.694643,-0.354858 -1.290365,-0.829991 -1.787167,-1.4254 v 5.743052 c 0,0.31215 -0.09923,0.56746 -0.297704,0.765929 -0.198469,0.212288 -0.460687,0.318431 -0.786655,0.318431 z m 4.764209,-6.806686 c 0.723534,0 1.368874,-0.170207 1.93602,-0.510619 0.567144,-0.354231 1.0137,-0.829049 1.339668,-1.424458 0.340412,-0.609853 0.510619,-1.290679 0.510619,-2.042476 0,-0.766244 -0.170207,-1.446755 -0.510619,-2.041535 -0.325968,-0.609855 -0.772524,-1.084988 -1.339668,-1.425401 -0.567146,-0.354858 -1.212486,-0.532287 -1.93602,-0.532287 -0.709089,0 -1.354114,0.177429 -1.935077,0.532287 -0.567146,0.340413 -1.014016,0.815546 -1.340611,1.425401 -0.325967,0.595409 -0.488951,1.27592 -0.488951,2.041535 0,0.751797 0.163298,1.432623 0.489894,2.042476 0.325966,0.595409 0.772522,1.070227 1.339668,1.424458 0.580963,0.340412 1.225988,0.510619 1.935077,0.510619 z m 12.692937,1.917177 c -1.035055,0 -1.963968,-0.255309 -2.786737,-0.765929 -0.822769,-0.524436 -1.475016,-1.226302 -1.956745,-2.105597 -0.46791,-0.893112 -0.701866,-1.899906 -0.701866,-3.020378 0,-1.120473 0.255309,-2.127266 0.765928,-3.020379 0.524438,-0.893112 1.226304,-1.594979 2.105598,-2.105598 0.893113,-0.525065 1.892997,-0.787597 2.999653,-0.787597 1.105399,0 2.097747,0.262532 2.977041,0.787597 0.879295,0.510619 1.574252,1.212486 2.084871,2.105598 0.524437,0.893113 0.786656,1.899906 0.786656,3.020379 h -0.82905 c 0,1.120472 -0.241178,2.127266 -0.723535,3.020378 -0.46791,0.879295 -1.112935,1.581161 -1.935076,2.105597 -0.822769,0.51062 -1.751682,0.765929 -2.786738,0.765929 z m 0.425831,-1.914351 c 0.722906,0 1.367931,-0.170206 1.935077,-0.510619 0.567145,-0.35423 1.014015,-0.829363 1.34061,-1.4254 0.325968,-0.609225 0.488951,-1.289737 0.488951,-2.041534 0,-0.766243 -0.163298,-1.447068 -0.489893,-2.042477 -0.325968,-0.609227 -0.772523,-1.084046 -1.339668,-1.424459 -0.567146,-0.354858 -1.212171,-0.532287 -1.935077,-0.532287 -0.709717,0 -1.355057,0.177429 -1.93602,0.532287 -0.567145,0.340413 -1.020924,0.815232 -1.361336,1.424459 -0.326596,0.596037 -0.489893,1.276862 -0.489893,2.042477 0,0.751797 0.163297,1.432309 0.489893,2.041534 0.340412,0.596037 0.794191,1.07117 1.361336,1.4254 0.581591,0.340413 1.226931,0.510619 1.93602,0.510619 z m 4.764208,1.850289 c -0.312149,0 -0.574368,-0.09923 -0.786654,-0.297705 -0.199098,-0.212287 -0.298646,-0.474505 -0.298646,-0.786655 v -3.254961 l 0.405103,-2.25445 1.764557,0.765929 v 4.743482 c 0,0.31215 -0.106143,0.574368 -0.318431,0.786655 -0.19847,0.198469 -0.453779,0.297705 -0.765929,0.297705 z m 8.331018,0.06406 c -1.1343,0 -2.14831,-0.25531 -3.04205,-0.765929 -0.8793,-0.524436 -1.57395,-1.226302 -2.083941,-2.105597 -0.496171,-0.893112 -0.744257,-1.899906 -0.744257,-3.020378 0,-1.148737 0.248086,-2.169661 0.744257,-3.062773 0.496181,-0.893742 1.176691,-1.588699 2.041551,-2.084872 0.86547,-0.510619 1.85814,-0.765929 2.97799,-0.765929 0.83658,0 1.6025,0.163298 2.29778,0.489893 0.69465,0.311522 1.31832,0.786342 1.87101,1.424458 0.19847,0.227361 0.26944,0.461316 0.21291,0.701866 -0.0565,0.241178 -0.21262,0.454094 -0.46822,0.638745 -0.19847,0.141943 -0.41829,0.191561 -0.65947,0.148852 -0.24055,-0.05653 -0.46037,-0.184337 -0.65947,-0.383435 -0.69465,-0.737352 -1.5595,-1.106028 -2.59454,-1.106028 -0.72292,0 -1.36104,0.170207 -1.91436,0.510619 -0.5527,0.326595 -0.98512,0.787597 -1.29727,1.383006 -0.31216,0.595408 -0.46824,1.297274 -0.46824,2.105598 0,0.766243 0.15608,1.447068 0.46824,2.042476 0.32659,0.595409 0.77315,1.070227 1.33966,1.424458 0.56715,0.340412 1.22663,0.510619 1.97842,0.510619 0.49617,0 0.92859,-0.05653 1.29728,-0.169578 0.38311,-0.128126 0.73075,-0.319687 1.0429,-0.574683 0.22611,-0.184651 0.46006,-0.283886 0.70187,-0.297703 0.24054,-0.02826 0.45314,0.03549 0.6378,0.191246 0.24117,0.198469 0.37589,0.425516 0.40416,0.68114 0.0283,0.240551 -0.0569,0.460374 -0.25531,0.659471 -1.02124,0.949638 -2.29747,1.424458 -3.8287,1.424458 z m 11.71786,0 c -1.177,0 -2.22618,-0.248087 -3.14757,-0.744261 -0.90755,-0.510619 -1.62354,-1.205576 -2.14798,-2.084871 -0.51125,-0.893112 -0.76687,-1.914037 -0.76687,-3.062772 0,-1.162554 0.24117,-2.183479 0.72353,-3.062773 0.49617,-0.893742 1.17668,-1.588699 2.04154,-2.084872 0.86547,-0.510619 1.85813,-0.765929 2.97798,-0.765929 1.10602,0 2.05629,0.248087 2.8508,0.744261 0.79388,0.482356 1.3965,1.156273 1.80789,2.02175 0.42521,0.850404 0.6378,1.835843 0.6378,2.956315 0,0.269442 -0.092,0.496175 -0.27603,0.680199 -0.18465,0.170206 -0.41861,0.255309 -0.70187,0.255309 h -8.57312 v -1.701428 h 8.50906 l -0.87239,0.595409 c -0.0138,-0.709089 -0.15541,-1.340297 -0.42489,-1.893625 -0.27006,-0.566517 -0.65319,-1.013074 -1.14936,-1.339669 -0.49617,-0.325967 -1.0988,-0.48895 -1.80789,-0.48895 -0.80833,0 -1.50297,0.177429 -2.08393,0.532287 -0.56715,0.354231 -0.99989,0.843181 -1.29822,1.466852 -0.29771,0.609855 -0.44655,1.304812 -0.44655,2.084872 0,0.78006 0.17742,1.475017 0.53228,2.084871 0.35423,0.609226 0.84349,1.091268 1.46779,1.446127 0.62367,0.35423 1.33968,0.531345 2.148,0.531345 0.43964,0 0.8862,-0.07788 1.33967,-0.233641 0.46854,-0.169578 0.84444,-0.36114 1.1277,-0.574683 0.21291,-0.15576 0.43995,-0.23364 0.68113,-0.23364 0.255,-0.01382 0.47483,0.05715 0.65948,0.212914 0.24054,0.212915 0.36805,0.446871 0.38249,0.701866 0.0138,0.254995 -0.0996,0.47482 -0.3401,0.659471 -0.48236,0.383122 -1.0853,0.694958 -1.80883,0.935507 -0.70847,0.241178 -1.38899,0.361767 -2.04154,0.361767 z m 10.71169,0 c -0.99234,0 -1.91403,-0.148852 -2.76507,-0.446556 -0.83659,-0.312149 -1.48883,-0.70218 -1.95674,-1.17009 -0.21291,-0.226732 -0.30525,-0.482043 -0.27698,-0.76593 0.0427,-0.297704 0.18463,-0.538567 0.42583,-0.722591 0.28326,-0.227361 0.55961,-0.319687 0.82905,-0.276978 0.28388,0.02826 0.52506,0.148855 0.72354,0.361766 0.24117,0.269442 0.62429,0.524752 1.14936,0.765929 0.53826,0.226732 1.13367,0.340099 1.78622,0.340099 0.82277,0 1.44644,-0.13472 1.87101,-0.404161 0.43966,-0.269441 0.66671,-0.616763 0.68115,-1.041965 0.0144,-0.425829 -0.19128,-0.794506 -0.61708,-1.106028 -0.41138,-0.312149 -1.17009,-0.567459 -2.27612,-0.765928 -1.43199,-0.283887 -2.47427,-0.709402 -3.12683,-1.276548 -0.63812,-0.567146 -0.95717,-1.261789 -0.95717,-2.08393 0,-0.723534 0.21291,-1.319257 0.63873,-1.787167 0.42521,-0.482355 0.971,-0.8369 1.63738,-1.063633 0.66638,-0.241178 1.36134,-0.361767 2.08488,-0.361767 0.93581,0 1.76518,0.149166 2.48808,0.447499 0.72354,0.297704 1.29822,0.708774 1.72405,1.23321 0.19784,0.226733 0.28985,0.467911 0.27603,0.723535 -0.0145,0.24055 -0.135,0.445928 -0.36176,0.616135 -0.22674,0.156388 -0.49618,0.206006 -0.80832,0.148852 -0.31216,-0.05653 -0.57438,-0.184024 -0.78666,-0.382494 -0.35486,-0.340412 -0.73798,-0.574368 -1.14936,-0.701865 -0.41076,-0.127498 -0.88558,-0.191247 -1.42446,-0.191247 -0.62431,0 -1.15628,0.106143 -1.59592,0.318431 -0.42521,0.213543 -0.63781,0.525692 -0.63781,0.936449 0,0.254995 0.0637,0.488951 0.19125,0.701865 0.14195,0.198469 0.41139,0.382808 0.80832,0.553014 0.39694,0.155761 0.97853,0.311837 1.74477,0.468225 1.06333,0.212287 1.89991,0.481728 2.50976,0.808323 0.62367,0.325968 1.07023,0.708774 1.33967,1.148422 0.27007,0.425202 0.40511,0.921376 0.40511,1.488521 0,0.652562 -0.17743,1.241062 -0.53229,1.765499 -0.34041,0.525065 -0.85103,0.943358 -1.53186,1.25488 -0.66638,0.31215 -1.50296,0.468224 -2.50976,0.468224 z"
       style="fill:#616577;fill-opacity:1;stroke-width:0.249261px"
       fill="gray"
       aria-label="tagspaces pro"
       id="path1"
       sodipodi:nodetypes="sccsssssssssscscssscscsscscsssccsccsccccccssccsccsccsccsscscccssssccsccsccccccsscccccccscsscccsccssscsccsccsscsscccccccscccccsccscccccccscscccccsccsscscccsccsccsccscssccsccsccsccssccsccsccccccssccsccsccsccsscscccssssccsccsccccccscssccsccccccssccsccsccscsccccccsccsccscccccccssscccccccscccccsccscccccccscscccccsccs" />
    <rect
       style="opacity:0.705128;fill:#33b5be;fill-opacity:1;stroke-width:0.283733;stroke-dasharray:none;paint-order:markers stroke fill"
       id="rect2"
       width="27.538336"
       height="9.9865246"
       x="109.82119"
       y="19.256332"
       ry="1.2104878"
       rx="1.1687357" />
  </g>
  <path
     style="font-weight:bold;font-size:11.2889px;font-family:Avenir;-inkscape-font-specification:'Avenir Bold';opacity:0.705128;fill:#000600;fill-opacity:0.972145;stroke-width:0.212725;paint-order:markers stroke fill"
     d="m 132.22435,27.22123 h -1.55786 v -0.72249 h -0.0226 q -0.1016,0.146756 -0.27094,0.3048 -0.15804,0.146756 -0.38382,0.270934 -0.21449,0.124178 -0.48542,0.2032 -0.25965,0.07902 -0.54187,0.07902 -0.6096,0 -1.10631,-0.2032 -0.49671,-0.214489 -0.85796,-0.587023 -0.34995,-0.383822 -0.54186,-0.903112 -0.19192,-0.519289 -0.19192,-1.140179 0,-0.575734 0.16934,-1.095023 0.18062,-0.530578 0.49671,-0.936979 0.32738,-0.4064 0.79022,-0.643467 0.46285,-0.248356 1.04987,-0.248356 0.53058,0 0.98213,0.169334 0.46285,0.158044 0.75636,0.553156 h 0.0226 v -3.635026 h 1.69333 z m -1.55786,-2.743203 q 0,-0.62089 -0.36125,-1.004712 -0.34996,-0.383823 -0.99342,-0.383823 -0.64347,0 -1.00471,0.383823 -0.34996,0.383822 -0.34996,1.004712 0,0.620889 0.34996,1.004712 0.36124,0.383823 1.00471,0.383823 0.64346,0 0.99342,-0.383823 0.36125,-0.383823 0.36125,-1.004712 z m 2.70932,0 q 0,-0.654756 0.23707,-1.185335 0.23707,-0.530578 0.64347,-0.903112 0.41769,-0.383822 0.97084,-0.587023 0.56445,-0.2032 1.19663,-0.2032 0.63217,0 1.18533,0.2032 0.56444,0.203201 0.97085,0.587023 0.41768,0.372534 0.65475,0.903112 0.23707,0.530579 0.23707,1.185335 0,0.654756 -0.23707,1.185334 -0.23707,0.530579 -0.65475,0.914401 -0.40641,0.372534 -0.97085,0.575734 -0.55316,0.2032 -1.18533,0.2032 -0.63218,0 -1.19663,-0.2032 -0.55315,-0.2032 -0.97084,-0.575734 -0.4064,-0.383822 -0.64347,-0.914401 -0.23707,-0.530578 -0.23707,-1.185334 z m 1.69334,0 q 0,0.620889 0.34995,1.004712 0.36125,0.383823 1.00472,0.383823 0.64346,0 0.99342,-0.383823 0.36124,-0.383823 0.36124,-1.004712 0,-0.62089 -0.36124,-1.004712 -0.34996,-0.383823 -0.99342,-0.383823 -0.64347,0 -1.00472,0.383823 -0.34995,0.383822 -0.34995,1.004712 z m 9.11013,-0.970846 q -0.12418,-0.180622 -0.34996,-0.293511 -0.22578,-0.124178 -0.48542,-0.124178 -0.64347,0 -1.00472,0.383823 -0.34995,0.383822 -0.34995,1.004712 0,0.620889 0.34995,1.004712 0.36125,0.383823 1.00472,0.383823 0.28222,0 0.48542,-0.124178 0.2032,-0.124178 0.34996,-0.293512 l 1.1176,1.174046 q -0.39511,0.4064 -0.93698,0.575734 -0.53058,0.158044 -1.016,0.158044 -0.63218,0 -1.19663,-0.2032 -0.55315,-0.2032 -0.97084,-0.575734 -0.4064,-0.383822 -0.64347,-0.914401 -0.23707,-0.530578 -0.23707,-1.185334 0,-0.654756 0.23707,-1.185335 0.23707,-0.530578 0.64347,-0.903112 0.41769,-0.383822 0.97084,-0.587023 0.56445,-0.2032 1.19663,-0.2032 0.48542,0 1.016,0.169334 0.54187,0.158044 0.93698,0.564445 z m 4.83163,-0.158044 q -0.37254,-0.462845 -0.98214,-0.462845 -0.21449,0 -0.41769,0.1016 -0.2032,0.1016 -0.2032,0.349956 0,0.2032 0.2032,0.3048 0.21449,0.09031 0.53058,0.169334 0.32738,0.06773 0.68863,0.158044 0.37253,0.07902 0.68862,0.259645 0.32738,0.180622 0.53058,0.496712 0.21449,0.3048 0.21449,0.824089 0,0.530579 -0.23707,0.880535 -0.22578,0.338667 -0.58702,0.553156 -0.36125,0.2032 -0.8128,0.282222 -0.45156,0.09031 -0.89183,0.09031 -0.57573,0 -1.16275,-0.158044 -0.58703,-0.169334 -0.99343,-0.587023 l 1.02729,-1.140179 q 0.23707,0.293511 0.51929,0.451556 0.29351,0.146756 0.67734,0.146756 0.29351,0 0.53057,-0.07902 0.23707,-0.09031 0.23707,-0.316089 0,-0.214489 -0.21449,-0.316089 -0.2032,-0.112889 -0.53058,-0.180622 -0.31609,-0.07902 -0.68862,-0.158045 -0.36124,-0.09031 -0.68862,-0.259645 -0.31609,-0.169333 -0.53058,-0.474134 -0.2032,-0.316089 -0.2032,-0.835378 0,-0.485423 0.19191,-0.835379 0.2032,-0.349956 0.51929,-0.575734 0.32738,-0.225778 0.74507,-0.327378 0.41769,-0.112889 0.84666,-0.112889 0.54187,0 1.09503,0.158045 0.55315,0.158044 0.93698,0.564445 z"
     id="text2"
     aria-label="docs" />
</svg>
