<?xml version="1.0" encoding="UTF-8" standalone="no"?>
<svg
   xmlns:dc="http://purl.org/dc/elements/1.1/"
   xmlns:cc="http://creativecommons.org/ns#"
   xmlns:rdf="http://www.w3.org/1999/02/22-rdf-syntax-ns#"
   xmlns:svg="http://www.w3.org/2000/svg"
   xmlns="http://www.w3.org/2000/svg"
   xmlns:sodipodi="http://sodipodi.sourceforge.net/DTD/sodipodi-0.dtd"
   xmlns:inkscape="http://www.inkscape.org/namespaces/inkscape"
   width="190mm"
   height="34mm"
   version="1.1"
   viewBox="0 0 190 34"
   id="svg44"
   sodipodi:docname="tagspaces-docs-logo.svg"
   inkscape:version="1.0.1 (0767f8302a, 2020-10-17)">
  <metadata
     id="metadata50">
    <rdf:RDF>
      <cc:Work
         rdf:about="">
        <dc:format>image/svg+xml</dc:format>
        <dc:type
           rdf:resource="http://purl.org/dc/dcmitype/StillImage" />
        <dc:title></dc:title>
      </cc:Work>
    </rdf:RDF>
  </metadata>
  <defs
     id="defs48" />
  <sodipodi:namedview
     pagecolor="#ffffff"
     bordercolor="#666666"
     borderopacity="1"
     objecttolerance="10"
     gridtolerance="10"
     guidetolerance="10"
     inkscape:pageopacity="0"
     inkscape:pageshadow="2"
     inkscape:window-width="2569"
     inkscape:window-height="1167"
     id="namedview46"
     showgrid="false"
     inkscape:zoom="1.9671846"
     inkscape:cx="334.48819"
     inkscape:cy="66.141732"
     inkscape:window-x="2358"
     inkscape:window-y="423"
     inkscape:window-maximized="0"
     inkscape:current-layer="svg44" />
  <ellipse
     cx="20.262163"
     cy="10.759045"
     rx="1.7385038"
     ry="1.7180113"
     fill="#616577"
     id="ellipse2"
     style="stroke-width:1.11981" />
  <g
     id="g14"
     transform="matrix(1.1198092,0,0,1.1198092,-0.33784641,-3.9059769)">
    <g
       stroke-width="2.6742"
       id="g10">
      <path
         d="M 15.219,24.158 12.7703,21.8932"
         fill="none"
         stroke="#a466aa"
         id="path4" />
      <path
         d="M 19.601,18.905 14.7035,14.5013"
         fill="#f7901e"
         stroke="#33b5be"
         id="path6" />
      <path
         d="M 17.474,21.611 13.7364,18.2768"
         fill="#616577"
         stroke="#f7901e"
         id="path8" />
    </g>
    <path
       d="m 15.667,8.1954 h 8.0718 v 7.6893 l -10.741,11.026 -7.9741,-7.3716 z"
       fill="none"
       stroke="#616577"
       stroke-width="3.1071"
       id="path12" />
  </g>
  <g
     fill="#616577"
     stroke-width="0.26458px"
     aria-label="TagSpaces Docs"
     id="g42"
     transform="matrix(1.1198092,0,0,1.1198092,-0.33784641,-3.9059769)">
    <path
       d="m 34.705,9.2647 q 0,-0.86817 0.3514,-1.509 0.36174,-0.65112 1.0025,-1.1059 0.65112,-0.45475 1.5503,-0.74414 0.90951,-0.29972 1.9947,-0.46509 1.0852,-0.16536 2.3254,-0.22738 1.2402,-0.062012 2.5632,-0.062012 1.7983,0 3.7621,0.14469 1.974,0.14469 4.1134,0.5271 0.4961,0.10335 0.69246,0.37207 0.20671,0.26872 0.20671,0.59945 0,0.20671 -0.09302,0.40308 -0.09302,0.19637 -0.24805,0.36174 -0.15503,0.16536 -0.36174,0.26872 -0.20671,0.093018 -0.43408,0.093018 -0.79582,0 -1.664,-0.082682 -0.85783,-0.082682 -1.7983,-0.18604 -0.93018,-0.10335 -1.9224,-0.20671 -0.99219,-0.10335 -2.0464,-0.15503 -0.18604,1.1576 -0.47542,2.4908 -0.28939,1.3333 -0.64079,2.7285 -0.34106,1.3849 -0.72347,2.7699 -0.37207,1.3746 -0.72347,2.6355 -0.3514,1.2506 -0.66146,2.3151 -0.29972,1.0645 -0.4961,1.8293 -0.08268,0.3514 -0.25838,0.65112 -0.16536,0.28939 -0.38241,0.50643 -0.20671,0.21704 -0.43408,0.33073 -0.22738,0.12402 -0.42375,0.12402 -0.58911,0 -0.97152,-0.27905 -0.38241,-0.27905 -0.38241,-0.89917 0,-0.19637 0.06201,-0.43408 0.13436,-0.94051 0.3514,-1.85 0.22738,-0.90951 0.5271,-1.8914 0.29972,-0.99219 0.68213,-2.0981 0.38241,-1.1059 0.8475,-2.4288 0.46509,-1.3333 1.0025,-2.9352 0.54777,-1.602 1.1782,-3.5657 -0.54777,0.041341 -1.1162,0.093018 -0.55811,0.051677 -1.0955,0.14469 -0.5271,0.082682 -0.99219,0.21704 -0.45475,0.13436 -0.80615,0.34106 -0.34106,0.20671 -0.54777,0.49609 -0.19637,0.28939 -0.19637,0.68213 0,0.020671 -0.03101,0.22738 -0.02067,0.20671 -0.1757,0.45475 -0.15503,0.23771 -0.4961,0.44442 -0.33073,0.19637 -0.95085,0.19637 -0.62012,0 -0.96118,-0.20671 -0.34106,-0.20671 -0.49609,-0.45475 -0.18604,-0.28939 -0.20671,-0.66146 z"
       id="path16" />
    <path
       d="m 56.802,20.479 q -0.23771,0.33073 -0.64079,0.77515 -0.39274,0.44442 -0.88884,0.8475 -0.49609,0.40308 -1.0645,0.68213 -0.56841,0.27905 -1.1369,0.27905 -0.68213,0 -1.1369,-0.43408 -0.45475,-0.44442 -0.78548,-1.2816 -0.24805,0.28939 -0.60978,0.58911 -0.36174,0.29972 -0.79582,0.54777 -0.42375,0.23771 -0.88884,0.39274 -0.46509,0.15503 -0.93018,0.15503 -0.4961,0 -0.97152,-0.19637 -0.46509,-0.20671 -0.82682,-0.57878 -0.36174,-0.38241 -0.57878,-0.91984 -0.21704,-0.54777 -0.21704,-1.2299 0,-0.77515 0.21704,-1.5916 0.21704,-0.81649 0.59945,-1.5916 0.38241,-0.78548 0.89917,-1.4779 0.5271,-0.69246 1.1472,-1.2092 0.62012,-0.51676 1.3022,-0.81649 0.69246,-0.31006 1.4056,-0.31006 0.23771,0 0.37207,0.09302 0.13436,0.09302 0.21704,0.21704 0.09302,0.11369 0.1757,0.22738 0.08268,0.11369 0.20671,0.16536 0.12402,0.05168 0.24805,0.07235 0.13436,0.01034 0.26872,0.01034 0.11369,0 0.22738,0 0.12402,-0.01034 0.23771,-0.01034 0.15503,0 0.28939,0.03101 0.13436,0.03101 0.23771,0.13436 0.10335,0.10335 0.15503,0.28939 0.06201,0.18604 0.06201,0.50643 0,0.4961 -0.10335,1.1059 -0.10335,0.59945 -0.22738,1.2402 -0.12402,0.63045 -0.22738,1.2712 -0.10335,0.63045 -0.10335,1.1989 0,0.48576 0.08268,0.76481 0.09302,0.26872 0.38241,0.26872 0.21704,0 0.45475,-0.10335 0.23771,-0.11369 0.47542,-0.28939 0.24805,-0.1757 0.48576,-0.39274 0.24805,-0.22738 0.46509,-0.46509 0.50643,-0.55811 1.0232,-1.2609 z m -8.8263,-0.81649 q 0,0.25838 0.03101,0.50643 0.04134,0.23771 0.13436,0.43408 0.09302,0.18604 0.24805,0.31006 0.15503,0.11369 0.39274,0.11369 0.38241,0 0.69246,-0.33073 0.31006,-0.33073 0.53744,-0.79582 0.22738,-0.46509 0.36174,-0.96118 0.14469,-0.49609 0.18604,-0.82682 l 0.63045,-3.0386 q -0.42375,0 -0.82682,0.21704 -0.40308,0.20671 -0.76481,0.56844 -0.3514,0.36174 -0.65112,0.82682 -0.29972,0.46509 -0.51676,0.98185 -0.21704,0.50643 -0.34106,1.0232 -0.11369,0.51676 -0.11369,0.97152 z"
       id="path18" />
    <path
       d="m 59.851,21.925 q -0.55811,0.49609 -1.1679,0.80615 -0.59945,0.29972 -1.1679,0.29972 -0.4961,0 -0.97152,-0.19637 -0.46509,-0.20671 -0.82682,-0.57878 -0.36174,-0.38241 -0.57878,-0.91984 -0.21704,-0.54777 -0.21704,-1.2299 0,-0.77515 0.21704,-1.5916 0.21704,-0.81645 0.59945,-1.5916 0.38241,-0.78548 0.89917,-1.4779 0.5271,-0.69246 1.1472,-1.2092 0.62012,-0.51676 1.3022,-0.81649 0.69246,-0.31006 1.4056,-0.31006 0.23771,0 0.37207,0.09302 0.13436,0.09302 0.21704,0.21704 0.09302,0.11369 0.1757,0.22738 0.08268,0.11369 0.20671,0.16536 0.12402,0.05168 0.24805,0.07235 0.13436,0.01034 0.26872,0.01034 0.11369,0 0.22738,0 0.12402,-0.01034 0.23771,-0.01034 0.15503,0 0.28939,0.03101 0.13436,0.03101 0.23771,0.13436 0.10335,0.10335 0.15503,0.28939 0.06201,0.18604 0.06201,0.50643 0,0.26872 -0.04134,0.72347 -0.04134,0.45475 -0.11369,1.0129 -0.07235,0.55811 -0.16536,1.1886 -0.08268,0.62012 -0.1757,1.2196 -0.21704,1.4263 -0.49609,3.0489 0.31006,-0.1757 0.6718,-0.43408 0.36174,-0.25838 0.80615,-0.69246 0.44441,-0.43408 0.99219,-1.0852 0.54777,-0.66146 1.2299,-1.6433 l 0.4961,2.2944 q -0.18604,0.3204 -0.48576,0.66146 -0.28939,0.33073 -0.65112,0.67179 -0.3514,0.33073 -0.74414,0.65112 -0.38241,0.31006 -0.75448,0.58911 -0.8785,0.66146 -1.8914,1.2816 -0.19637,1.1059 -0.46509,2.1497 -0.26872,1.0542 -0.64079,1.9637 -0.36174,0.91984 -0.83716,1.6847 -0.46509,0.76481 -1.0645,1.3126 -0.58911,0.54777 -1.3229,0.8475 -0.73381,0.31006 -1.6226,0.31006 -0.3514,0 -0.76481,-0.07235 -0.40308,-0.07235 -0.75448,-0.28939 -0.34106,-0.21704 -0.56844,-0.62012 -0.22738,-0.40308 -0.22738,-1.0749 0,-0.46509 0.23771,-1.0542 0.23771,-0.57878 0.65112,-1.2299 0.41341,-0.64079 0.98185,-1.3436 0.56844,-0.69246 1.2299,-1.3849 0.67179,-0.69247 1.3953,-1.3643 0.73381,-0.6718 1.4779,-1.2816 z m -2.2841,-2.2634 q 0,0.25838 0.03101,0.50643 0.04134,0.23771 0.13436,0.43408 0.09302,0.18604 0.24805,0.31006 0.15503,0.11369 0.39274,0.11369 0.38241,0 0.69246,-0.33073 0.31006,-0.33073 0.53744,-0.79582 0.22738,-0.46509 0.36174,-0.96118 0.1447,-0.49609 0.18604,-0.82682 l 0.63045,-3.0386 q -0.42375,0 -0.82682,0.21704 -0.40308,0.20671 -0.76481,0.56844 -0.3514,0.36174 -0.65112,0.82682 -0.29972,0.46509 -0.51677,0.98185 -0.21704,0.50643 -0.34106,1.0232 -0.11369,0.51676 -0.11369,0.97152 z m -1.5296,10.955 q 0.43408,0 0.81649,-0.25838 0.39274,-0.24805 0.71314,-0.66146 0.33073,-0.41341 0.59945,-0.94051 0.26872,-0.5271 0.47542,-1.0852 0.20671,-0.54777 0.3514,-1.0749 0.14469,-0.5271 0.22738,-0.94051 -0.40308,0.26872 -0.82682,0.64079 -0.41341,0.37207 -0.81649,0.79582 -0.39274,0.43408 -0.75448,0.88884 -0.3514,0.45475 -0.62012,0.86817 -0.26872,0.42375 -0.42375,0.78548 -0.15503,0.36174 -0.15503,0.59945 0,0.38241 0.41341,0.38241 z"
       id="path20" />
    <path
       d="m 69.492,9.4507 q 0,0.68213 0.39274,1.2196 0.40308,0.53744 1.0542,1.0025 0.66146,0.45475 1.4883,0.86817 0.83716,0.41341 1.7053,0.85783 0.8785,0.43408 1.7053,0.94051 0.83716,0.4961 1.4883,1.1265 0.66146,0.63045 1.0542,1.4263 0.40308,0.79582 0.40308,1.819 0,0.93018 -0.29972,1.7157 -0.29972,0.77515 -0.82682,1.3953 -0.51676,0.62012 -1.2299,1.0955 -0.71314,0.47538 -1.54,0.78548 -0.82686,0.3101 -1.7363,0.46509 -0.90951,0.16536 -1.8293,0.16536 -1.2919,0 -2.5115,-0.32039 -1.2196,-0.31006 -2.1704,-0.95085 -0.95085,-0.63045 -1.5296,-1.5813 -0.56844,-0.96118 -0.56844,-2.2428 0,-0.66146 0.20671,-1.1576 0.21704,-0.50643 0.5271,-0.83716 0.32039,-0.34106 0.69246,-0.50643 0.37207,-0.1757 0.69246,-0.1757 0.33073,0 0.54777,0.18604 0.22738,0.1757 0.22738,0.55811 0,0.1757 -0.04134,0.37207 -0.04134,0.19637 -0.09302,0.43408 -0.04134,0.22738 -0.08268,0.50643 -0.04134,0.27905 -0.04134,0.60978 0,0.72347 0.33073,1.2506 0.33073,0.5271 0.8785,0.86817 0.54777,0.34107 1.2609,0.50643 0.71313,0.16536 1.4779,0.16536 0.89917,0 1.7983,-0.21704 0.89917,-0.21704 1.6123,-0.64079 0.71314,-0.42375 1.1576,-1.0335 0.44442,-0.62012 0.44442,-1.4159 0,-0.73381 -0.40308,-1.3126 -0.39274,-0.57878 -1.0542,-1.0645 -0.65112,-0.4961 -1.4883,-0.93018 -0.83716,-0.43408 -1.7053,-0.8785 -0.86817,-0.44442 -1.7053,-0.93018 -0.83716,-0.4961 -1.4986,-1.0852 -0.65112,-0.58911 -1.0542,-1.3126 -0.39274,-0.73381 -0.39274,-1.664 0,-0.86817 0.41341,-1.7053 0.42375,-0.84749 1.2609,-1.509 0.8475,-0.67179 2.1084,-1.0852 1.2609,-0.41341 2.9559,-0.41341 1.0749,0 2.0981,0.32039 1.0335,0.32039 1.8397,0.90951 0.80615,0.58911 1.2919,1.4056 0.4961,0.81649 0.4961,1.8087 0,0.58911 -0.20671,1.2092 -0.19637,0.62012 -0.64079,1.2919 -0.43408,0.65112 -0.95085,0.97152 -0.50643,0.31006 -0.91984,0.31006 -0.31006,0 -0.50643,-0.1757 -0.19637,-0.18604 -0.19637,-0.54777 0,-0.26872 0.12402,-0.63045 0.12402,-0.37207 0.42375,-0.8475 0.27905,-0.45475 0.41341,-0.84749 0.13436,-0.40308 0.13436,-0.74414 0,-0.5271 -0.28939,-0.91984 -0.27906,-0.40308 -0.78549,-0.67179 -0.4961,-0.26872 -1.1989,-0.40308 -0.7028,-0.13436 -1.54,-0.13436 -0.93018,0 -1.6226,0.21704 -0.68213,0.20671 -1.1472,0.54777 -0.45475,0.33073 -0.68213,0.74414 -0.21704,0.41341 -0.21704,0.81649 z"
       id="path22" />
    <path
       d="m 83.66,21.171 q 1.0439,0 1.9017,-0.20671 0.8578,-0.20671 1.5503,-0.55811 0.7028,-0.3514 1.2609,-0.81649 0.56844,-0.47542 1.0232,-1.0129 l 0.11369,2.3668 q -0.33073,0.40308 -0.80615,0.78548 -0.46509,0.37207 -1.0232,0.66146 -0.55811,0.27905 -1.1782,0.45475 -0.60978,0.16536 -1.2092,0.16536 -0.07235,0 -0.18604,-0.02067 -0.10335,-0.02067 -0.37207,-0.07235 -0.26872,-0.05168 -0.77515,-0.13436 -0.4961,-0.09302 -1.3539,-0.21704 v 0.18604 q 0,1.881 -0.32039,3.4106 -0.31006,1.54 -0.83716,2.6252 -0.5271,1.0852 -1.2092,1.6743 -0.6821,0.5891 -1.4159,0.58911 -0.58911,0 -0.98185,-0.28939 -0.39274,-0.28939 -0.62012,-0.78548 -0.23771,-0.48576 -0.33073,-1.1472 -0.10335,-0.65112 -0.10335,-1.3849 0,-0.42375 0.13436,-0.96118 0.13436,-0.5271 0.36174,-1.1162 0.22738,-0.57878 0.51676,-1.1886 0.27905,-0.59945 0.57878,-1.1679 0.7028,-1.3229 1.602,-2.7285 0.11369,-0.80615 0.22738,-1.6536 0.12402,-0.8475 0.29972,-1.6433 0.18604,-0.79582 0.45475,-1.509 0.27905,-0.71314 0.7028,-1.2402 0.43408,-0.5271 1.0335,-0.83716 0.59942,-0.31006 1.4469,-0.31006 0.63045,0 1.1782,0.1757 0.54777,0.16536 0.96118,0.54777 0.41341,0.38241 0.65112,0.99219 0.23771,0.59945 0.23771,1.4779 0,0.7028 -0.20671,1.3643 -0.20671,0.65112 -0.65112,1.2506 -0.43408,0.59945 -1.1162,1.1265 -0.67179,0.51676 -1.602,0.93018 z m -1.3022,-1.0439 q 0.62012,-0.31006 1.0645,-0.69246 0.45475,-0.38241 0.77515,-0.81649 0.33073,-0.43408 0.53744,-0.89917 0.20671,-0.46509 0.33073,-0.95085 0.05168,-0.22738 0.06201,-0.5271 0.02067,-0.31006 -0.06201,-0.57878 -0.07235,-0.26872 -0.26872,-0.45475 -0.18604,-0.19637 -0.5271,-0.19637 -0.38241,0 -0.6718,0.21704 -0.28939,0.20671 -0.50643,0.56844 -0.20671,0.36174 -0.3514,0.85783 -0.13436,0.4961 -0.22738,1.0645 -0.08268,0.56844 -0.12402,1.1886 -0.03101,0.60978 -0.03101,1.2196 z m -3.5967,7.4414 q 0,0.08268 0.031,0.26872 0.04134,0.18604 0.12402,0.37207 0.08268,0.18604 0.21704,0.33073 0.13436,0.14469 0.33073,0.14469 0.1757,0 0.28939,-0.19637 0.11369,-0.18604 0.18604,-0.50643 0.07235,-0.32039 0.10335,-0.72347 0.03101,-0.40308 0.05168,-0.82682 0.02067,-0.42375 0.02067,-0.82682 0.01034,-0.40308 0.03101,-0.72347 0.03101,-0.55811 0.04134,-0.95085 0.02067,-0.38241 0.03101,-0.64079 0.01034,-0.28939 0.02067,-0.48576 -0.19637,0.34106 -0.38241,0.78548 -0.18604,0.45475 -0.3514,0.94051 -0.16536,0.48576 -0.29972,0.97152 -0.13436,0.48576 -0.23771,0.89917 -0.09302,0.42375 -0.15503,0.72347 -0.05168,0.31006 -0.05168,0.44442 z"
       id="path24" />
    <path
       d="m 99.1,20.479 q -0.23771,0.33073 -0.64079,0.77515 -0.39274,0.44442 -0.88884,0.8475 -0.4961,0.40308 -1.0645,0.68213 -0.56844,0.27905 -1.1369,0.27905 -0.68213,0 -1.1369,-0.43408 -0.45475,-0.44442 -0.78548,-1.2816 -0.24805,0.28939 -0.60978,0.58911 -0.36173,0.29972 -0.79582,0.54777 -0.42375,0.23771 -0.88884,0.39274 -0.46509,0.15503 -0.93018,0.15503 -0.49609,0 -0.97152,-0.19637 -0.46509,-0.20671 -0.82682,-0.57878 -0.36174,-0.38241 -0.57878,-0.91984 -0.21704,-0.54777 -0.21704,-1.2299 0,-0.77515 0.21704,-1.5916 0.21704,-0.81649 0.59945,-1.5916 0.38241,-0.78548 0.89917,-1.4779 0.5271,-0.69246 1.1472,-1.2092 0.62012,-0.51676 1.3022,-0.81649 0.69247,-0.31006 1.4056,-0.31006 0.23771,0 0.37207,0.09302 0.13436,0.09302 0.21704,0.21704 0.09302,0.11369 0.1757,0.22738 0.08268,0.11369 0.20671,0.16536 0.12402,0.05168 0.24805,0.07235 0.13436,0.01034 0.26872,0.01034 0.11369,0 0.22738,0 0.12402,-0.01034 0.23771,-0.01034 0.15503,0 0.28939,0.03101 0.13436,0.03101 0.23771,0.13436 0.10335,0.10335 0.15503,0.28939 0.06201,0.18604 0.06201,0.50643 0,0.4961 -0.10335,1.1059 -0.10335,0.59945 -0.22738,1.2402 -0.12402,0.63045 -0.22738,1.2712 -0.10335,0.63045 -0.10335,1.1989 0,0.48576 0.08268,0.76481 0.09302,0.26872 0.38241,0.26872 0.21704,0 0.45475,-0.10335 0.23771,-0.11369 0.47542,-0.28939 0.24805,-0.1757 0.48576,-0.39274 0.24805,-0.22738 0.46509,-0.46509 0.50643,-0.55811 1.0232,-1.2609 z m -8.8263,-0.81649 q 0,0.25838 0.03101,0.50643 0.04134,0.23771 0.13436,0.43408 0.09302,0.18604 0.24805,0.31006 0.15503,0.11369 0.39274,0.11369 0.38241,0 0.69246,-0.33073 0.31006,-0.33073 0.53744,-0.79582 0.22738,-0.46509 0.36174,-0.96118 0.14469,-0.49609 0.18604,-0.82682 l 0.63045,-3.0386 q -0.42375,0 -0.82682,0.21704 -0.40308,0.20671 -0.76481,0.56844 -0.3514,0.36174 -0.65112,0.82682 -0.29972,0.46509 -0.51676,0.98185 -0.21704,0.50643 -0.34106,1.0232 -0.11369,0.51676 -0.11369,0.97152 z"
       id="path26" />
    <path
       d="m 101.07,23.011 q -0.95084,0 -1.6743,-0.3514 -0.71314,-0.3514 -1.1989,-0.94051 -0.48576,-0.58911 -0.73381,-1.3643 -0.24805,-0.77515 -0.24805,-1.6123 0,-0.59945 0.12402,-1.2506 0.12402,-0.65112 0.36174,-1.2712 0.24805,-0.63045 0.59945,-1.1989 0.36174,-0.56844 0.82682,-0.99219 0.47542,-0.43408 1.0542,-0.68213 0.57877,-0.25838 1.2712,-0.25838 0.58911,0 1.0852,0.18604 0.50643,0.1757 0.85783,0.4961 0.36173,0.32039 0.5581,0.76481 0.20671,0.43408 0.20671,0.94051 0,0.3514 -0.093,0.69246 -0.093,0.34106 -0.27905,0.62012 -0.1757,0.26872 -0.43408,0.43408 -0.25839,0.16536 -0.57878,0.16536 -0.48576,0 -0.64079,-0.25838 -0.14469,-0.25838 -0.14469,-0.71314 0,-0.18604 0.0103,-0.39274 0.0207,-0.20671 0.0207,-0.37207 0,-0.24805 -0.0517,-0.41341 -0.0517,-0.16536 -0.22737,-0.16536 -0.42375,0 -0.72347,0.20671 -0.29973,0.19637 -0.51677,0.5271 -0.2067,0.32039 -0.33073,0.73381 -0.12402,0.40308 -0.19637,0.80615 -0.07235,0.40308 -0.09302,0.77515 -0.02067,0.36174 -0.02067,0.60978 0,0.37207 0.06201,0.77515 0.07235,0.40308 0.25838,0.74414 0.18603,0.33073 0.50643,0.55811 0.32039,0.21704 0.82682,0.21704 0.4961,0 1.0955,-0.29972 0.59945,-0.31006 1.1989,-0.77515 0.60978,-0.46509 1.1576,-1.0232 0.54782,-0.55811 0.94051,-1.0542 l 0.71314,1.1989 q -0.77515,1.1059 -1.6743,1.974 -0.3824,0.37207 -0.83716,0.72347 -0.44442,0.3514 -0.94051,0.63045 -0.48576,0.26872 -1.0232,0.44442 -0.5271,0.16536 -1.0749,0.16536 z"
       id="path28" />
    <path
       d="m 108.98,23.011 q -0.97152,0 -1.7053,-0.3514 -0.72347,-0.3514 -1.2092,-0.94051 -0.48576,-0.59945 -0.7338,-1.3746 -0.23772,-0.78548 -0.23772,-1.6433 0,-0.57878 0.11369,-1.2196 0.11369,-0.65112 0.34107,-1.2712 0.23771,-0.62012 0.58911,-1.1782 0.3514,-0.56844 0.81649,-0.99219 0.47542,-0.43408 1.0542,-0.68213 0.58911,-0.25838 1.3022,-0.25838 0.57877,0 1.0749,0.18604 0.49609,0.18604 0.85783,0.5271 0.37207,0.33073 0.57878,0.80615 0.2067,0.47542 0.2067,1.0645 0,0.64079 -0.32039,1.2816 -0.31006,0.64079 -0.86817,1.2092 -0.5581,0.56844 -1.3332,1.0129 -0.76481,0.44442 -1.664,0.69246 0.15503,0.27905 0.29973,0.46509 0.15503,0.18604 0.31006,0.28939 0.15503,0.10335 0.32039,0.14469 0.1757,0.04134 0.37207,0.04134 0.62012,0 1.3022,-0.24805 0.69247,-0.24805 1.3436,-0.62012 0.65113,-0.37207 1.2299,-0.80615 0.57878,-0.44442 0.98186,-0.83716 l 1.3332,1.3849 q -0.90951,0.94051 -1.9327,1.664 -0.44442,0.31006 -0.96119,0.60978 -0.50643,0.29972 -1.0749,0.53744 -0.5581,0.22738 -1.1679,0.37207 -0.59944,0.13436 -1.2196,0.13436 z m -1.3746,-4.8576 q 0.37207,0 0.80616,-0.18604 0.44441,-0.19637 0.81649,-0.4961 0.3824,-0.29972 0.64078,-0.65112 0.25839,-0.3514 0.25839,-0.68213 0,-0.46509 -0.1757,-0.76481 -0.16537,-0.29972 -0.41342,-0.29972 -0.44441,0 -0.76481,0.16536 -0.31006,0.16536 -0.5271,0.43408 -0.2067,0.25838 -0.34106,0.59945 -0.12403,0.33073 -0.19637,0.6718 -0.062,0.34106 -0.0827,0.66146 -0.0207,0.3204 -0.0207,0.54777 z"
       id="path30" />
    <path
       d="m 113.3,19.042 q 0.57878,-0.49609 0.94052,-0.82682 0.36173,-0.33073 0.62012,-0.59945 0.25838,-0.27905 0.46508,-0.55811 0.21705,-0.27905 0.50643,-0.66146 0.28939,-0.38241 0.7028,-0.93018 0.41342,-0.55811 1.0749,-1.3849 0.13435,-0.18604 0.29972,-0.36174 0.16536,-0.1757 0.36173,-0.31006 0.20671,-0.14469 0.44442,-0.22738 0.24805,-0.09302 0.54777,-0.09302 0.4961,0 0.76482,0.11369 0.26871,0.10335 0.39274,0.25838 0.12402,0.15503 0.14469,0.33073 0.0207,0.16536 0.0207,0.28939 0,0.24805 -0.19637,0.54777 -0.19637,0.29972 -0.43408,0.57878 -0.23771,0.27906 -0.45475,0.51676 -0.20671,0.22738 -0.23772,0.34106 0,0.32039 0.0414,0.58911 0.0517,0.25838 0.12402,0.51676 0.0827,0.24805 0.16536,0.53744 0.0827,0.27905 0.15503,0.65112 0.0827,0.37207 0.12403,0.85783 0.0517,0.48576 0.0517,1.1472 0.37207,-0.24805 0.79582,-0.44442 0.43408,-0.20671 0.89917,-0.42375 0.46509,-0.21704 0.95085,-0.47542 0.4961,-0.26872 0.99219,-0.64079 l 0.0103,2.3151 q -0.64079,0.49609 -1.4883,0.93018 -0.83716,0.43408 -1.7673,0.76481 -0.91984,0.33073 -1.8707,0.5271 -0.94052,0.18604 -1.788,0.18604 -0.60979,0 -1.1369,-0.11369 -0.52711,-0.11369 -0.93017,-0.3514 -0.39274,-0.24805 -0.64079,-0.64079 -0.24805,-0.39274 -0.29973,-0.95085 -0.14469,0.03101 -0.28938,0.04134 -0.13436,0.01034 -0.26872,0.01034 -0.16537,0 -0.31006,-0.01034 -0.1447,-0.01034 -0.24805,-0.07235 -0.10335,-0.07235 -0.16536,-0.21704 -0.062,-0.15503 -0.062,-0.43408 0,-0.24805 0.12402,-0.45475 0.12402,-0.21704 0.28939,-0.38241 0.16536,-0.16536 0.33073,-0.28939 0.16536,-0.12402 0.24804,-0.19637 z m 1.3229,1.3229 q 0.12403,0 0.26872,0.15503 0.15503,0.15503 0.3514,0.34106 0.19637,0.18604 0.45475,0.34106 0.25839,0.15503 0.58912,0.15503 0.40307,0 0.66146,-0.13436 0.26871,-0.13436 0.42374,-0.3514 0.15503,-0.22738 0.21705,-0.51676 0.062,-0.29972 0.062,-0.62012 0,-0.27905 -0.0413,-0.56844 -0.031,-0.28939 -0.093,-0.54777 -0.0517,-0.26872 -0.12403,-0.4961 -0.062,-0.23771 -0.11368,-0.40308 z"
       id="path32" />
    <path
       d="m 132.54,5.0686 q 1.6846,0 2.9972,0.27905 1.3126,0.27905 2.2944,0.77515 0.99219,0.49609 1.6743,1.1886 0.68213,0.68213 1.1059,1.4986 0.42374,0.80615 0.60978,1.7157 0.19637,0.90951 0.19637,1.8604 0,1.3022 -0.28939,2.6458 -0.28939,1.3333 -0.83716,2.5838 -0.54777,1.2506 -1.3539,2.3461 -0.79582,1.0955 -1.8294,1.912 -1.03358,0.8165 -2.2738,1.2816 -1.2402,0.47542 -2.6768,0.47542 -0.48576,0 -0.99219,-0.07235 -0.50643,-0.07235 -0.98185,-0.19637 -0.47543,-0.12402 -0.89918,-0.27905 -0.42374,-0.15503 -0.74414,-0.3204 -0.13436,-0.04134 -0.21704,-0.09302 -0.0724,-0.06201 -0.11369,-0.13436 -0.0413,-0.08268 -0.0517,-0.19637 -0.0103,-0.11369 -0.0103,-0.28939 0,-1.7157 0.0827,-3.514 0.093,-1.7983 0.36174,-3.514 0.26872,-1.7157 0.77515,-3.266 0.50643,-1.5606 1.3436,-2.7905 0.7338,-0.50643 1.3332,-0.50643 0.75448,0 1.2609,0.84749 -0.47543,0.64079 -0.79582,1.4263 -0.3204,0.78548 -0.53744,1.6536 -0.21704,0.85783 -0.36173,1.757 -0.1447,0.89917 -0.26872,1.757 -0.14469,0.95085 -0.24805,1.633 -0.093,0.6718 -0.15503,1.1782 -0.0517,0.50643 -0.0827,0.88884 -0.0207,0.38241 -0.0207,0.74414 0,0.38241 0.0207,0.64079 0.031,0.25838 0.12402,0.41341 0.10336,0.15503 0.29973,0.22738 0.2067,0.06201 0.54777,0.06201 1.0335,0 1.9637,-0.40308 0.93017,-0.41341 1.7157,-1.0955 0.78548,-0.69246 1.4056,-1.602 0.63045,-0.90951 1.0645,-1.9224 0.44442,-1.0129 0.68213,-2.0567 0.23772,-1.0542 0.23772,-2.0257 0,-1.1989 -0.39274,-2.1394 -0.39275,-0.95085 -1.1059,-1.602 -0.7028,-0.66146 -1.695,-1.0025 -0.99219,-0.3514 -2.1808,-0.3514 -0.86817,0 -1.726,0.10335 -0.84749,0.10335 -1.5813,0.32039 -0.72347,0.21704 -1.2816,0.55811 -0.54777,0.33073 -0.82682,0.79582 -0.75448,1.1679 -1.2402,1.8087 -0.48576,0.63045 -0.81648,0.63045 -0.45476,0 -0.45476,-1.0439 0,-1.0129 0.26872,-1.819 0.25838,-0.80615 0.73381,-1.4263 0.46508,-0.63045 1.1059,-1.0645 0.65113,-0.44442 1.4159,-0.72347 0.77515,-0.28939 1.6433,-0.42375 0.86817,-0.13436 1.7777,-0.13436 z"
       id="path34" />
    <path
       d="m 147.68,15.27 q 0.29972,0.59945 0.44441,1.2712 0.15503,0.66146 0.15503,1.2712 0,0.60974 -0.13436,1.2299 -0.13435,0.62012 -0.39274,1.1989 -0.24804,0.57878 -0.62012,1.0852 -0.36173,0.50643 -0.83715,0.8785 -0.46509,0.37207 -1.0232,0.58911 -0.55811,0.21704 -1.1886,0.21704 -0.90951,0 -1.5606,-0.39274 -0.64079,-0.40308 -1.0542,-1.0439 -0.41341,-0.64079 -0.60978,-1.4469 -0.18604,-0.80615 -0.18604,-1.633 0,-1.1369 0.34107,-2.1187 0.34106,-0.99219 0.97151,-1.7157 0.64079,-0.73381 1.5606,-1.1472 0.91985,-0.42375 2.0671,-0.42375 0.98185,0 1.8397,0.31006 0.85783,0.29972 1.602,0.81649 0.75448,0.50643 1.3953,1.1679 0.65112,0.66146 1.2092,1.3643 l -0.19637,1.4573 q -0.27906,-0.37207 -0.75448,-0.80615 -0.47542,-0.43408 -1.0129,-0.8475 -0.5271,-0.41341 -1.0439,-0.77515 -0.51676,-0.37207 -0.88883,-0.62012 z m -3.1936,5.7568 q 0.3514,0 0.68213,-0.3514 0.33073,-0.36174 0.57877,-0.89917 0.24805,-0.54777 0.39275,-1.1989 0.15503,-0.66146 0.15503,-1.2609 0,-0.47542 -0.0724,-0.8785 -0.0724,-0.41341 -0.21704,-0.71314 -0.1447,-0.29972 -0.37207,-0.47542 -0.22738,-0.1757 -0.54778,-0.1757 -0.42374,0 -0.80615,0.36174 -0.3824,0.36174 -0.67179,0.93018 -0.28939,0.55811 -0.45476,1.2402 -0.16536,0.68213 -0.16536,1.3126 0,0.43408 0.0827,0.81649 0.0827,0.38241 0.25838,0.67179 0.1757,0.27905 0.46509,0.45475 0.28939,0.16536 0.69247,0.16536 z"
       id="path36" />
    <path
       d="m 153.54,23.011 q -0.95085,0 -1.6743,-0.3514 -0.71313,-0.3514 -1.1989,-0.94051 -0.48577,-0.58911 -0.73381,-1.3643 -0.24804,-0.77519 -0.24805,-1.6123 0,-0.59945 0.12403,-1.2506 0.12402,-0.65112 0.36173,-1.2712 0.24805,-0.63045 0.59945,-1.1989 0.36174,-0.56844 0.82682,-0.99219 0.47543,-0.43408 1.0542,-0.68213 0.57877,-0.25838 1.2712,-0.25838 0.58911,0 1.0852,0.18604 0.50643,0.1757 0.85783,0.4961 0.36174,0.32039 0.55811,0.76481 0.20671,0.43408 0.20671,0.94051 0,0.3514 -0.093,0.69246 -0.093,0.34106 -0.27905,0.62012 -0.1757,0.26872 -0.43409,0.43408 -0.25838,0.16536 -0.57877,0.16536 -0.48576,0 -0.64079,-0.25838 -0.1447,-0.25838 -0.1447,-0.71314 0,-0.18604 0.0103,-0.39274 0.0207,-0.20671 0.0207,-0.37207 0,-0.24805 -0.0517,-0.41341 -0.0517,-0.16536 -0.22737,-0.16536 -0.42375,0 -0.72348,0.20671 -0.29972,0.19637 -0.51676,0.5271 -0.20671,0.32039 -0.33073,0.73381 -0.12402,0.40308 -0.19637,0.80615 -0.0724,0.40308 -0.093,0.77515 -0.0207,0.36174 -0.0207,0.60978 0,0.37207 0.062,0.77515 0.0724,0.40308 0.25839,0.74414 0.18603,0.33073 0.50642,0.55811 0.3204,0.21704 0.82683,0.21704 0.49609,0 1.0955,-0.29972 0.59945,-0.31006 1.1989,-0.77515 0.60978,-0.46509 1.1576,-1.0232 0.54782,-0.55811 0.94051,-1.0542 l 0.71314,1.1989 q -0.77515,1.1059 -1.6743,1.974 -0.38241,0.37207 -0.83716,0.72347 -0.44442,0.3514 -0.94051,0.63045 -0.48576,0.26872 -1.0232,0.44442 -0.5271,0.16536 -1.0749,0.16536 z"
       id="path38" />
    <path
       d="m 157.62,19.042 q 0.57878,-0.49609 0.94052,-0.82682 0.36173,-0.33073 0.62011,-0.59945 0.25839,-0.27905 0.46509,-0.55811 0.21704,-0.27905 0.50643,-0.66146 0.28939,-0.38241 0.7028,-0.93018 0.41342,-0.55811 1.0749,-1.3849 0.13435,-0.18604 0.29972,-0.36174 0.16536,-0.1757 0.36173,-0.31006 0.20671,-0.14469 0.44442,-0.22738 0.24805,-0.09302 0.54777,-0.09302 0.4961,0 0.76482,0.11369 0.26871,0.10335 0.39274,0.25838 0.12402,0.15503 0.14469,0.33073 0.0207,0.16536 0.0207,0.28939 0,0.24805 -0.19637,0.54777 -0.19637,0.29972 -0.43408,0.57878 -0.23771,0.27906 -0.45475,0.51676 -0.20671,0.22738 -0.23772,0.34106 0,0.32039 0.0413,0.58911 0.0517,0.25838 0.12403,0.51676 0.0827,0.24805 0.16536,0.53744 0.0827,0.27905 0.15503,0.65112 0.0827,0.37207 0.12403,0.85783 0.0517,0.48576 0.0517,1.1472 0.37207,-0.24805 0.79582,-0.44442 0.43408,-0.20671 0.89917,-0.42375 0.46509,-0.21704 0.95085,-0.47542 0.4961,-0.26872 0.99219,-0.64079 l 0.0103,2.3151 q -0.64078,0.49609 -1.4883,0.93018 -0.83716,0.43408 -1.7673,0.76481 -0.91984,0.33073 -1.8707,0.5271 -0.94051,0.18604 -1.788,0.18604 -0.60979,0 -1.1369,-0.11369 -0.52711,-0.11369 -0.93017,-0.3514 -0.39274,-0.24805 -0.64079,-0.64079 -0.24805,-0.39274 -0.29973,-0.95085 -0.14469,0.03101 -0.28938,0.04134 -0.13436,0.01034 -0.26872,0.01034 -0.16537,0 -0.31006,-0.01034 -0.1447,-0.01034 -0.24805,-0.07235 -0.10335,-0.07235 -0.16536,-0.21704 -0.062,-0.15503 -0.062,-0.43408 0,-0.24805 0.12403,-0.45475 0.12402,-0.21704 0.28939,-0.38241 0.16536,-0.16536 0.33073,-0.28939 0.16536,-0.12402 0.24804,-0.19637 z m 1.3229,1.3229 q 0.12403,0 0.26872,0.15503 0.15503,0.15503 0.3514,0.34106 0.19637,0.18604 0.45475,0.34106 0.25839,0.15503 0.58912,0.15503 0.40307,0 0.66146,-0.13436 0.26871,-0.13436 0.42374,-0.3514 0.15503,-0.22738 0.21704,-0.51676 0.062,-0.29972 0.062,-0.62012 0,-0.27905 -0.0413,-0.56844 -0.031,-0.28939 -0.093,-0.54777 -0.0517,-0.26872 -0.12403,-0.4961 -0.062,-0.23771 -0.11368,-0.40308 z"
       id="path40" />
  </g>
</svg>
