<?xml version="1.0" encoding="UTF-8" standalone="no"?>
<!-- Created with Inkscape (http://www.inkscape.org/) -->

<svg
   width="171mm"
   height="135mm"
   viewBox="0 0 171 135"
   version="1.1"
   id="svg9297"
   inkscape:version="1.2.2 (732a01da63, 2022-12-09, custom)"
   sodipodi:docname="inkscape-shapes.svg"
   xmlns:inkscape="http://www.inkscape.org/namespaces/inkscape"
   xmlns:sodipodi="http://sodipodi.sourceforge.net/DTD/sodipodi-0.dtd"
   xmlns="http://www.w3.org/2000/svg"
   xmlns:svg="http://www.w3.org/2000/svg">
  <sodipodi:namedview
     id="namedview9299"
     pagecolor="#ffffff"
     bordercolor="#666666"
     borderopacity="1.0"
     inkscape:showpageshadow="2"
     inkscape:pageopacity="0.0"
     inkscape:pagecheckerboard="0"
     inkscape:deskcolor="#d1d1d1"
     inkscape:document-units="mm"
     showgrid="false"
     inkscape:zoom="2.1203673"
     inkscape:cx="403.23202"
     inkscape:cy="188.88237"
     inkscape:window-width="1846"
     inkscape:window-height="1016"
     inkscape:window-x="74"
     inkscape:window-y="27"
     inkscape:window-maximized="1"
     inkscape:current-layer="layer1" />
  <defs
     id="defs9294">
    <inkscape:path-effect
       effect="bspline"
       id="path-effect1039"
       is_visible="true"
       lpeversion="1"
       weight="33.333333"
       steps="2"
       helper_size="0"
       apply_no_weight="true"
       apply_with_weight="true"
       only_selected="false" />
    <marker
       markerWidth="1.05"
       markerHeight="0.99999994"
       refX="0"
       refY="0"
       orient="auto-start-reverse"
       id="CapRibbon2"
       viewBox="0 0 1.05 1"
       inkscape:stockid="pin"
       style="overflow:visible"
       preserveAspectRatio="xMidYMid"
       inkscape:isstock="true"
       inkscape:collect="always">
      <path
         id="path63170"
         style="fill:context-stroke;stroke-linecap:butt"
         d="M 0,-1 H 2 A 1.11,1.11 90 0 0 2,1 H 0 L -0.1,0 Z"
         sodipodi:nodetypes="sssssscsss"
         transform="scale(0.5)" />
    </marker>
    <marker
       style="overflow:visible"
       id="Arrow2"
       refX="0"
       refY="0"
       orient="auto-start-reverse"
       inkscape:stockid="Arrow2"
       markerWidth="4.6999998"
       markerHeight="3.4181819"
       viewBox="0 0 7.7 5.6"
       inkscape:isstock="true"
       inkscape:collect="always"
       preserveAspectRatio="xMidYMid">
      <path
         transform="scale(0.7)"
         d="M -2,-4 9,0 -2,4 c 2,-2.33 2,-5.66 0,-8 z"
         style="fill:context-stroke;fill-rule:evenodd;stroke:none"
         id="arrow2L" />
    </marker>
    <inkscape:path-effect
       effect="bspline"
       id="path-effect1039-3"
       is_visible="true"
       lpeversion="1"
       weight="33.333333"
       steps="2"
       helper_size="0"
       apply_no_weight="true"
       apply_with_weight="true"
       only_selected="false" />
  </defs>
  <g
     inkscape:label="Layer 1"
     inkscape:groupmode="layer"
     id="layer1">
    <rect
       style="fill:none;fill-opacity:1;stroke:#ef2dae;stroke-width:1.00916;stroke-linejoin:bevel;stroke-dasharray:none;stroke-opacity:1"
       id="rect4526"
       width="42.438171"
       height="10.850973"
       x="30.629431"
       y="11.116703"
       rx="2.0581427"
       ry="2.2287238" />
    <g
       aria-label="🄌 "
       id="text16023"
       style="font-size:8.46667px;line-height:1.25;stroke-width:0.264583">
      <path
         d="m 91.433202,19.350988 c 2.167468,0 3.945469,-1.761068 3.945469,-3.945468 0,-2.167468 -1.761068,-3.945469 -3.945469,-3.945469 -2.175934,0 -3.945468,1.769534 -3.945468,3.945469 0,2.175934 1.769534,3.945468 3.945468,3.945468 z m -0.0085,-1.701801 c -1.016001,0 -1.676401,-0.880534 -1.676401,-2.311401 0,-1.430867 0.6604,-2.277534 1.676401,-2.277534 1.024467,0 1.693334,0.846667 1.693334,2.277534 0,1.430867 -0.668867,2.311401 -1.693334,2.311401 z m 0,-0.567267 c 0.567266,0 0.973667,-0.550333 0.973667,-1.744134 0,-1.1938 -0.406401,-1.718734 -0.973667,-1.718734 -0.567267,0 -0.965201,0.524934 -0.965201,1.718734 0,1.193801 0.397934,1.744134 0.965201,1.744134 z"
         style="fill:#ef2dae"
         id="path37654" />
    </g>
    <g
       aria-label="➊ "
       id="text16023-3"
       style="font-size:8.46667px;line-height:1.25;stroke-width:0.264583">
      <path
         d="m 103.79036,17.102632 v 0.56224 h 2.84427 v -0.56224 h -1.09141 v -4.378029 h -0.66559 l -1.18236,0.239779 v 0.607715 l 1.18649,-0.235645 v 3.76618 z m -0.0455,-5.159377 q 0.62839,-0.264583 1.34772,-0.264583 0.71934,0 1.34773,0.264583 0.62011,0.256315 1.13274,0.77308 0.5209,0.520898 0.77308,1.141016 0.25632,0.620117 0.25632,1.351856 0,0.711068 -0.25632,1.331185 -0.25218,0.620118 -0.77308,1.141016 -0.51263,0.516765 -1.13274,0.77308 -0.62839,0.264583 -1.34773,0.264583 -0.71933,0 -1.34772,-0.264583 -0.62012,-0.256315 -1.13275,-0.77308 -0.52089,-0.520898 -0.77721,-1.141016 -0.25218,-0.620117 -0.25218,-1.331185 0,-0.731739 0.25218,-1.351856 0.25632,-0.620118 0.77721,-1.141016 0.51263,-0.516765 1.13275,-0.77308 z"
         style="fill:#ef2dae"
         id="path37657" />
    </g>
    <g
       aria-label="➋ "
       id="text16023-9"
       style="font-size:8.46667px;line-height:1.25;stroke-width:0.264583">
      <path
         d="m 118.4485,16.765294 q 0.80615,-0.822689 1.2485,-1.281576 0.44648,-0.458887 0.52917,-0.553972 0.30179,-0.37207 0.41341,-0.644922 0.11575,-0.272852 0.11575,-0.574642 0,-0.640788 -0.45888,-1.025261 -0.45476,-0.384473 -1.2237,-0.384473 -0.28939,0 -0.64079,0.08268 -0.3514,0.08268 -0.75241,0.243912 v 0.673861 q 0.39687,-0.219108 0.74414,-0.326595 0.3514,-0.111621 0.66559,-0.111621 0.44235,0 0.71521,0.248047 0.27698,0.248047 0.27698,0.640788 0,0.243913 -0.12816,0.49196 -0.12402,0.248047 -0.44648,0.611849 -0.1695,0.190169 -0.82682,0.855762 -0.65319,0.661459 -1.03353,1.0542 v 0.56224 h 3.13366 v -0.56224 z m -0.59118,-5.146975 q 0.62838,-0.264583 1.34772,-0.264583 0.71933,0 1.34772,0.264583 0.62012,0.256315 1.13275,0.77308 0.5209,0.520898 0.77308,1.141016 0.25631,0.620117 0.25631,1.351856 0,0.711068 -0.25631,1.331185 -0.25218,0.620118 -0.77308,1.141016 -0.51263,0.516765 -1.13275,0.77308 -0.62839,0.264584 -1.34772,0.264584 -0.71934,0 -1.34772,-0.264584 -0.62012,-0.256315 -1.13275,-0.77308 -0.5209,-0.520898 -0.77722,-1.141016 -0.25218,-0.620117 -0.25218,-1.331185 0,-0.731739 0.25218,-1.351856 0.25632,-0.620118 0.77722,-1.141016 0.51263,-0.516765 1.13275,-0.77308 z"
         style="fill:#ef2dae"
         id="path37660" />
    </g>
    <g
       aria-label="➌ "
       id="text16023-7"
       style="font-size:8.46667px;line-height:1.25;stroke-width:0.264583">
      <path
         d="m 132.92568,15.213252 q 0.43408,-0.111622 0.66973,-0.392741 0.23564,-0.28112 0.23564,-0.694532 0,-0.587044 -0.44648,-0.930176 -0.44235,-0.347266 -1.20303,-0.347266 -0.29352,0 -0.62839,0.05374 -0.33072,0.04961 -0.71106,0.157096 v 0.595313 q 0.38034,-0.124024 0.69453,-0.181901 0.31419,-0.06201 0.58704,-0.06201 0.50436,0 0.77308,0.202572 0.26872,0.202571 0.26872,0.58291 0,0.37207 -0.26045,0.570508 -0.26045,0.194303 -0.75654,0.194303 h -0.59945 v 0.549838 h 0.57464 q 0.54571,0 0.85163,0.248047 0.30593,0.243913 0.30593,0.682129 0,0.471289 -0.33073,0.719336 -0.3266,0.248047 -0.95498,0.248047 -0.35967,0 -0.6904,-0.08268 -0.33073,-0.08268 -0.61185,-0.243913 v 0.644922 q 0.3514,0.11989 0.67799,0.181901 0.33073,0.06201 0.64493,0.06201 0.92604,0 1.42627,-0.401009 0.50436,-0.401009 0.50436,-1.128614 0,-0.479557 -0.27285,-0.802018 -0.26872,-0.322462 -0.74828,-0.425814 z m -2.05879,-3.059246 q 0.62839,-0.264584 1.34772,-0.264584 0.71934,0 1.34773,0.264584 0.62011,0.256315 1.13274,0.773079 0.5209,0.520899 0.77308,1.141016 0.25632,0.620118 0.25632,1.351856 0,0.711068 -0.25632,1.331186 -0.25218,0.620117 -0.77308,1.141016 -0.51263,0.516764 -1.13274,0.77308 -0.62839,0.264583 -1.34773,0.264583 -0.71933,0 -1.34772,-0.264583 -0.62012,-0.256316 -1.13275,-0.77308 -0.5209,-0.520899 -0.77721,-1.141016 -0.25218,-0.620118 -0.25218,-1.331186 0,-0.731738 0.25218,-1.351856 0.25631,-0.620117 0.77721,-1.141016 0.51263,-0.516764 1.13275,-0.773079 z"
         style="fill:#ef2dae"
         id="path37663" />
    </g>
    <g
       aria-label="➎ "
       id="text16023-94"
       style="font-size:8.46667px;line-height:1.25;stroke-width:0.264583">
      <path
         d="m 158.18459,12.901352 v 2.48047 q 0.27698,-0.124024 0.54156,-0.181901 0.26872,-0.06201 0.53744,-0.06201 0.57051,0 0.90537,0.30179 0.33486,0.301791 0.33486,0.814421 0,0.516765 -0.33486,0.818555 -0.33486,0.301791 -0.90537,0.301791 -0.35553,0 -0.67386,-0.07855 -0.31419,-0.08268 -0.61185,-0.243913 v 0.673861 q 0.34313,0.103353 0.66559,0.157096 0.32246,0.05374 0.63252,0.05374 0.90124,0 1.39733,-0.442351 0.4961,-0.44235 0.4961,-1.240235 0,-0.773079 -0.48369,-1.223698 -0.47956,-0.454753 -1.30638,-0.454753 -0.1447,0 -0.29353,0.02481 -0.14469,0.0248 -0.28939,0.07441 v -1.211296 h 2.00919 v -0.56224 z m -0.0372,-0.79375 q 0.62838,-0.264584 1.34772,-0.264584 0.71934,0 1.34772,0.264584 0.62012,0.256315 1.13275,0.773079 0.5209,0.520899 0.77308,1.141017 0.25631,0.620117 0.25631,1.351856 0,0.711068 -0.25631,1.331185 -0.25218,0.620117 -0.77308,1.141016 -0.51263,0.516765 -1.13275,0.77308 -0.62838,0.264583 -1.34772,0.264583 -0.71934,0 -1.34772,-0.264583 -0.62012,-0.256315 -1.13275,-0.77308 -0.5209,-0.520899 -0.77721,-1.141016 -0.25218,-0.620117 -0.25218,-1.331185 0,-0.731739 0.25218,-1.351856 0.25631,-0.620118 0.77721,-1.141017 0.51263,-0.516764 1.13275,-0.773079 z"
         style="fill:#ef2dae"
         id="path37666" />
    </g>
    <g
       aria-label="➍ "
       id="text16023-94-0"
       style="font-size:8.46667px;line-height:1.25;stroke-width:0.264583">
      <path
         d="m 145.56969,13.161929 v 2.637566 h -1.68671 z m -0.17363,-0.58291 -2.05465,3.129526 v 0.644922 h 2.22828 v 1.165821 h 0.6656 v -1.165821 h 0.7028 v -0.553972 h -0.7028 v -3.220476 z m -1.44694,-0.781348 q 0.62839,-0.264584 1.34772,-0.264584 0.71934,0 1.34772,0.264584 0.62012,0.256315 1.13275,0.77308 0.5209,0.520898 0.77308,1.141016 0.25632,0.620117 0.25632,1.351856 0,0.711068 -0.25632,1.331185 -0.25218,0.620118 -0.77308,1.141016 -0.51263,0.516765 -1.13275,0.77308 -0.62838,0.264583 -1.34772,0.264583 -0.71933,0 -1.34772,-0.264583 -0.62012,-0.256315 -1.13275,-0.77308 -0.5209,-0.520898 -0.77721,-1.141016 -0.25218,-0.620117 -0.25218,-1.331185 0,-0.731739 0.25218,-1.351856 0.25631,-0.620118 0.77721,-1.141016 0.51263,-0.516765 1.13275,-0.77308 z"
         style="fill:#ef2dae"
         id="path37669" />
    </g>
    <text
       xml:space="preserve"
       style="font-style:normal;font-weight:normal;font-size:8.46667px;line-height:1.25;font-family:sans-serif;fill:#000000;fill-opacity:1;stroke:none;stroke-width:0.264583"
       x="10.998168"
       y="17.92378"
       id="text16023-94-4"><tspan
         sodipodi:role="line"
         id="tspan16021-7-5"
         style="font-size:8.46667px;fill:#ef2dae;fill-opacity:1;stroke-width:0.264583"
         x="10.998168"
         y="17.92378">🄌</tspan><tspan
         sodipodi:role="line"
         style="font-size:8.46667px;fill:#ef2dae;fill-opacity:1;stroke-width:0.264583"
         x="10.998168"
         y="28.507118"
         id="tspan16025-8-2">➊</tspan><tspan
         sodipodi:role="line"
         style="font-size:8.46667px;fill:#ef2dae;fill-opacity:1;stroke-width:0.264583"
         x="10.998168"
         y="39.090454"
         id="tspan16027-4-54">➋</tspan><tspan
         sodipodi:role="line"
         style="font-size:8.46667px;fill:#ef2dae;fill-opacity:1;stroke-width:0.264583"
         x="10.998168"
         y="49.673794"
         id="tspan16029-5-7">➌</tspan><tspan
         sodipodi:role="line"
         style="font-size:8.46667px;fill:#ef2dae;fill-opacity:1;stroke-width:0.264583"
         x="10.998168"
         y="60.25713"
         id="tspan16031-0-44">➍</tspan><tspan
         sodipodi:role="line"
         style="font-size:8.46667px;fill:#ef2dae;fill-opacity:1;stroke-width:0.264583"
         x="10.998168"
         y="70.840469"
         id="tspan16033-3-3">➎</tspan><tspan
         sodipodi:role="line"
         style="font-size:8.46667px;fill:#ef2dae;fill-opacity:1;stroke-width:0.264583"
         x="10.998168"
         y="81.423805"
         id="tspan16035-6-0">➏</tspan><tspan
         sodipodi:role="line"
         style="font-size:8.46667px;fill:#ef2dae;fill-opacity:1;stroke-width:0.264583"
         x="10.998168"
         y="92.007141"
         id="tspan16037-1-7">➐</tspan><tspan
         sodipodi:role="line"
         style="font-size:8.46667px;fill:#ef2dae;fill-opacity:1;stroke-width:0.264583"
         x="10.998168"
         y="102.59048"
         id="tspan16039-0-8">➑</tspan><tspan
         sodipodi:role="line"
         style="font-size:8.46667px;fill:#ef2dae;fill-opacity:1;stroke-width:0.264583"
         x="10.998168"
         y="113.17382"
         id="tspan16041-6-6">➒</tspan><tspan
         sodipodi:role="line"
         style="font-size:8.46667px;fill:#ef2dae;fill-opacity:1;stroke-width:0.264583"
         x="10.998168"
         y="123.75716"
         id="tspan16043-3-8">➓</tspan><tspan
         sodipodi:role="line"
         style="font-size:8.46667px;fill:#ef2dae;fill-opacity:1;stroke-width:0.264583"
         x="10.998168"
         y="134.3405"
         id="tspan16045-2-8" /></text>
    <g
       aria-label="➏ "
       id="text16023-94-43"
       style="font-size:8.46667px;line-height:1.25;stroke-width:0.264583">
      <path
         d="m 90.56788,27.421102 q 0.450618,0 0.711068,0.310059 0.264583,0.305925 0.264583,0.84336 0,0.529167 -0.264583,0.839225 -0.26045,0.310059 -0.711068,0.310059 -0.446485,0 -0.711068,-0.310059 -0.264584,-0.310058 -0.264584,-0.839225 0,-0.537435 0.264584,-0.84336 0.264583,-0.310059 0.711068,-0.310059 z m 1.327051,-2.091863 q -0.276986,-0.09922 -0.533301,-0.148828 -0.256315,-0.04961 -0.508496,-0.04961 -0.934311,0 -1.492416,0.698665 -0.553972,0.694532 -0.553972,1.864487 0,1.244369 0.450619,1.901693 0.454753,0.657325 1.310515,0.657325 0.748275,0 1.198893,-0.458887 0.450619,-0.458887 0.450619,-1.219564 0,-0.777214 -0.434082,-1.227833 -0.429948,-0.454753 -1.174089,-0.454753 -0.355534,0 -0.649056,0.157097 -0.293523,0.152962 -0.487826,0.438216 0.04961,-0.901237 0.396875,-1.347722 0.3514,-0.446484 1.012858,-0.446484 0.248047,0 0.504363,0.06201 0.256315,0.06201 0.508496,0.181901 z M 89.261499,24.43627 q 0.628386,-0.264583 1.347722,-0.264583 0.719336,0 1.347722,0.264583 0.620117,0.256315 1.132748,0.77308 0.520898,0.520899 0.773079,1.141016 0.256315,0.620118 0.256315,1.351856 0,0.711068 -0.256315,1.331186 -0.252181,0.620117 -0.773079,1.141016 -0.512631,0.516764 -1.132748,0.773079 -0.628386,0.264584 -1.347722,0.264584 -0.719336,0 -1.347722,-0.264584 -0.620118,-0.256315 -1.132748,-0.773079 -0.520899,-0.520899 -0.777214,-1.141016 -0.252181,-0.620118 -0.252181,-1.331186 0,-0.731738 0.252181,-1.351856 0.256315,-0.620117 0.777214,-1.141016 0.51263,-0.516765 1.132748,-0.77308 z"
         style="fill:#ef2dae"
         id="path37672" />
    </g>
    <g
       aria-label="➐ "
       id="text16023-94-9"
       style="font-size:8.46667px;line-height:1.25;stroke-width:0.264583">
      <path
         d="m 103.3505,25.325689 v 0.562239 h 2.37298 l -1.68672,4.37803 h 0.69453 l 1.79421,-4.655015 v -0.285254 z m 0.25631,-0.781348 q 0.62839,-0.264584 1.34772,-0.264584 0.71934,0 1.34773,0.264584 0.62011,0.256315 1.13274,0.773079 0.5209,0.520899 0.77308,1.141016 0.25632,0.620118 0.25632,1.351856 0,0.711068 -0.25632,1.331186 -0.25218,0.620117 -0.77308,1.141016 -0.51263,0.516765 -1.13274,0.77308 -0.62839,0.264583 -1.34773,0.264583 -0.71933,0 -1.34772,-0.264583 -0.62011,-0.256315 -1.13274,-0.77308 -0.5209,-0.520899 -0.77722,-1.141016 -0.25218,-0.620118 -0.25218,-1.331186 0,-0.731738 0.25218,-1.351856 0.25632,-0.620117 0.77722,-1.141016 0.51263,-0.516764 1.13274,-0.773079 z"
         style="fill:#ef2dae"
         id="path37675" />
    </g>
    <g
       aria-label="➑ "
       id="text16023-94-48"
       style="font-size:8.46667px;line-height:1.25;stroke-width:0.264583">
      <path
         d="m 118.76394,27.876486 q 0.47956,0 0.75241,0.256316 0.27285,0.252181 0.27285,0.698665 0,0.442351 -0.27699,0.698666 -0.27285,0.256315 -0.74827,0.256315 -0.47543,0 -0.74828,-0.252181 -0.27285,-0.256315 -0.27285,-0.7028 0,-0.446484 0.27285,-0.698665 0.27285,-0.256316 0.74828,-0.256316 z m -0.66973,-0.285254 q -0.47956,0.111621 -0.75241,0.438217 -0.27285,0.326595 -0.27285,0.802018 0,0.715202 0.43822,1.099675 0.43821,0.384473 1.25677,0.384473 0.81855,0 1.25677,-0.384473 0.43822,-0.384473 0.43822,-1.099675 0,-0.475423 -0.27286,-0.802018 -0.26871,-0.326596 -0.7524,-0.438217 0.42994,-0.107487 0.66972,-0.401009 0.23978,-0.293522 0.23978,-0.719336 0,-0.591179 -0.42168,-0.93431 -0.42168,-0.343132 -1.15755,-0.343132 -0.73587,0 -1.15755,0.343132 -0.42168,0.343131 -0.42168,0.93431 0,0.425814 0.23977,0.719336 0.23978,0.293522 0.66973,0.401009 z m -0.24391,-1.054199 q 0,-0.384473 0.23978,-0.599447 0.23978,-0.214974 0.67386,-0.214974 0.42995,0 0.67386,0.214974 0.24391,0.214974 0.24391,0.599447 0,0.380338 -0.24391,0.595312 -0.24391,0.214974 -0.67386,0.214974 -0.43408,0 -0.67386,-0.214974 -0.23978,-0.214974 -0.23978,-0.595312 z m -0.42995,-2.03812 q 0.62839,-0.264583 1.34772,-0.264583 0.71934,0 1.34772,0.264583 0.62012,0.256316 1.13275,0.77308 0.5209,0.520899 0.77308,1.141016 0.25632,0.620118 0.25632,1.351856 0,0.711068 -0.25632,1.331186 -0.25218,0.620117 -0.77308,1.141016 -0.51263,0.516764 -1.13275,0.773079 -0.62838,0.264584 -1.34772,0.264584 -0.71933,0 -1.34772,-0.264584 -0.62012,-0.256315 -1.13275,-0.773079 -0.5209,-0.520899 -0.77721,-1.141016 -0.25218,-0.620118 -0.25218,-1.331186 0,-0.731738 0.25218,-1.351856 0.25631,-0.620117 0.77721,-1.141016 0.51263,-0.516764 1.13275,-0.77308 z"
         style="fill:#ef2dae"
         id="path37678" />
    </g>
    <g
       aria-label="➒  "
       id="text16023-94-09"
       style="font-size:8.46667px;line-height:1.25;stroke-width:0.264583">
      <path
         d="m 131.09889,30.130281 q 0.27698,0.09922 0.5333,0.148828 0.26045,0.04961 0.51263,0.04961 0.93431,0 1.48828,-0.694531 0.55397,-0.698666 0.55397,-1.864487 0,-1.252637 -0.45062,-1.905827 -0.45061,-0.657325 -1.31051,-0.657325 -0.74414,0 -1.19476,0.458887 -0.45062,0.458887 -0.45062,1.219565 0,0.777213 0.42995,1.227832 0.43408,0.446485 1.17409,0.446485 0.35553,0 0.64905,-0.152963 0.29766,-0.152962 0.48783,-0.434082 -0.0496,0.905372 -0.40101,1.351856 -0.34726,0.442351 -1.00872,0.442351 -0.24805,0 -0.50437,-0.06201 -0.25631,-0.06201 -0.50849,-0.181901 z m 1.32705,-2.091863 q -0.44649,0 -0.71107,-0.305925 -0.26458,-0.310058 -0.26458,-0.847493 0,-0.533301 0.26458,-0.839226 0.26458,-0.310059 0.71107,-0.310059 0.45062,0 0.71107,0.310059 0.26458,0.305925 0.26458,0.839226 0,0.537435 -0.26458,0.847493 -0.26045,0.305925 -0.71107,0.305925 z m -1.3808,-3.526401 q 0.62839,-0.264584 1.34773,-0.264584 0.71933,0 1.34772,0.264584 0.62012,0.256315 1.13275,0.77308 0.52089,0.520898 0.77308,1.141016 0.25631,0.620117 0.25631,1.351856 0,0.711068 -0.25631,1.331185 -0.25219,0.620118 -0.77308,1.141016 -0.51263,0.516765 -1.13275,0.77308 -0.62839,0.264583 -1.34772,0.264583 -0.71934,0 -1.34773,-0.264583 -0.62011,-0.256315 -1.13274,-0.77308 -0.5209,-0.520898 -0.77722,-1.141016 -0.25218,-0.620117 -0.25218,-1.331185 0,-0.731739 0.25218,-1.351856 0.25632,-0.620118 0.77722,-1.141016 0.51263,-0.516765 1.13274,-0.77308 z"
         style="fill:#ef2dae"
         id="path37681" />
    </g>
    <g
       aria-label="➓ "
       id="text16023-94-6"
       style="font-size:8.46667px;line-height:1.25;stroke-width:0.264583">
      <path
         d="m 146.56257,25.765899 q 0.41755,0 0.62425,0.508496 0.20671,0.504362 0.20671,1.525489 0,1.012859 -0.20671,1.521355 -0.2067,0.508496 -0.62425,0.508496 -0.41341,0 -0.62012,-0.508496 -0.2067,-0.508496 -0.2067,-1.521355 0,-1.021127 0.2067,-1.525489 0.20671,-0.508496 0.62012,-0.508496 z m 1.01699,0.128158 q -0.3514,-0.657325 -1.01699,-0.657325 -0.66559,0 -1.01699,0.657325 -0.34727,0.65319 -0.34727,1.905827 0,1.244369 0.34727,1.901694 0.3514,0.657324 1.01699,0.657324 0.66559,0 1.01699,-0.657324 0.3514,-0.657325 0.3514,-1.901694 0,-1.252637 -0.3514,-1.905827 z m -4.34082,3.807521 v 0.562239 h 1.86035 v -0.562239 h -0.66559 v -4.378029 h -0.5333 l -0.74001,0.157096 v 0.607715 l 0.74414,-0.152962 v 3.76618 z m 0.65733,-5.159377 q 0.62838,-0.264584 1.34772,-0.264584 0.71933,0 1.34772,0.264584 0.62012,0.256315 1.13275,0.773079 0.5209,0.520899 0.77308,1.141016 0.25631,0.620118 0.25631,1.351856 0,0.711068 -0.25631,1.331186 -0.25218,0.620117 -0.77308,1.141016 -0.51263,0.516764 -1.13275,0.77308 -0.62839,0.264583 -1.34772,0.264583 -0.71934,0 -1.34772,-0.264583 -0.62012,-0.256316 -1.13275,-0.77308 -0.5209,-0.520899 -0.77722,-1.141016 -0.25218,-0.620118 -0.25218,-1.331186 0,-0.731738 0.25218,-1.351856 0.25632,-0.620117 0.77722,-1.141016 0.51263,-0.516764 1.13275,-0.773079 z"
         style="fill:#ef2dae"
         id="path37684" />
    </g>
    <path
       style="fill:none;stroke:#ef2dae;stroke-width:2.065;stroke-linecap:butt;stroke-linejoin:miter;stroke-dasharray:none;stroke-opacity:1;marker-start:url(#Arrow2);marker-end:url(#CapRibbon2)"
       d="m 145.69709,39.922941 -23.96633,0.05905"
       id="path55267"
       sodipodi:nodetypes="cc" />
    <path
       style="fill:#000000;fill-opacity:1;stroke:#ef2dae;stroke-width:1.43541;stroke-linecap:butt;stroke-linejoin:miter;stroke-dasharray:none;stroke-opacity:1"
       d="m 87.4852,39.045484 c 0,0 7.445797,-0.07151 7.445797,-0.07151"
       id="path1037"
       inkscape:path-effect="#path-effect1039"
       inkscape:original-d="m 87.4852,39.045484 7.445797,-0.07151" />
    <path
       style="fill:#000000;fill-opacity:1;stroke:#ef2dae;stroke-width:1.43541;stroke-linecap:butt;stroke-linejoin:miter;stroke-dasharray:none;stroke-opacity:1"
       d="m 104.83399,42.769766 c 0,0 -0.13112,-7.444988 -0.13112,-7.444988"
       id="path1037-6"
       inkscape:path-effect="#path-effect1039-3"
       inkscape:original-d="m 104.83399,42.769766 -0.13112,-7.444988" />
  </g>
</svg>
